<svg width="32" height="32" viewBox="0 0 32 32" fill="none" xmlns="http://www.w3.org/2000/svg">
<g clip-path="url(#clip0_639_814)">
<path d="M0 16.0001C0 24.8366 7.16338 32 15.9999 32C24.8364 32 32.0001 24.8366 32.0001 16.0001C32.0001 7.16358 24.8364 -9.53674e-05 15.9999 -9.53674e-05C7.16748 0.00986481 0.0099609 7.16739 0 16.0001ZM30.3999 16.0001C30.3999 23.953 23.9528 30.4001 15.9999 30.4001C8.04697 30.4001 1.5999 23.953 1.5999 16.0001C1.5999 8.04717 8.04697 1.6001 15.9999 1.6001C23.949 1.60918 30.3908 8.05098 30.3999 16.0001Z" fill="#6A35FF"/>
<path d="M9.79936 17.8734C9.50844 18.2062 9.54243 18.7116 9.87495 19.0025C10.2078 19.2931 10.7131 19.2591 11.004 18.9266L16.0015 13.2149L20.9993 18.9269C21.2902 19.2597 21.7956 19.2934 22.1281 19.0028C22.4609 18.7119 22.4949 18.2065 22.204 17.8737L16.6039 11.4738C16.4521 11.3001 16.2324 11.2004 16.0015 11.2004C15.7707 11.2004 15.5512 11.3001 15.3992 11.4738L9.79936 17.8734Z" fill="#6A35FF"/>
</g>
<defs>
<clipPath id="clip0_639_814">
<rect width="32" height="32" fill="white" transform="matrix(0 -1 1 0 0 32)"/>
</clipPath>
</defs>
</svg>
