<svg width="32" height="32" viewBox="0 0 32 32" fill="none" xmlns="http://www.w3.org/2000/svg">
<g clip-path="url(#clip0_639_818)">
<path d="M32 15.9999C32 7.16338 24.8366 0 16.0001 0C7.16358 0 -9.53674e-05 7.16338 -9.53674e-05 15.9999C-9.53674e-05 24.8364 7.16358 32.0001 16.0001 32.0001C24.8325 31.9901 31.99 24.8326 32 15.9999ZM1.6001 15.9999C1.6001 8.04697 8.04717 1.5999 16.0001 1.5999C23.953 1.5999 30.4001 8.04697 30.4001 15.9999C30.4001 23.9528 23.953 30.3999 16.0001 30.3999C8.05098 30.3908 1.60918 23.949 1.6001 15.9999Z" fill="black"/>
<path d="M22.2006 14.1266C22.4916 13.7938 22.4576 13.2884 22.1251 12.9975C21.7922 12.7069 21.2869 12.7409 20.996 13.0734L15.9985 18.7851L11.0007 13.0731C10.7098 12.7403 10.2044 12.7066 9.87193 12.9972C9.53911 13.2881 9.50513 13.7935 9.79605 14.1263L15.3961 20.5262C15.5479 20.6999 15.7676 20.7996 15.9985 20.7996C16.2293 20.7996 16.4488 20.6999 16.6008 20.5262L22.2006 14.1266Z" fill="black"/>
</g>
<defs>
<clipPath id="clip0_639_818">
<rect width="32" height="32" fill="white" transform="matrix(0 1 -1 0 32 0)"/>
</clipPath>
</defs>
</svg>
