<svg width="94" height="94" viewBox="0 0 94 94" fill="none" xmlns="http://www.w3.org/2000/svg">
<circle cx="47" cy="47" r="46.5392" fill="white" stroke="#D9D9D9" stroke-width="0.921569"/>
<g clip-path="url(#clip0_285_12524)">
<path d="M69.7931 39.9831L67.5301 39.6725C67.0988 37.9751 66.4299 36.3621 65.5308 34.8551L66.8484 33.0983C67.2679 32.539 67.2125 31.7555 66.7173 31.2602L62.7398 27.2826C62.2445 26.7874 61.461 26.7321 60.9015 27.1517L59.1449 28.4693C57.6379 27.5702 56.025 26.901 54.3274 26.47L54.0167 24.2068C53.9206 23.5105 53.3254 22.9969 52.6252 22.9998H47.0009C46.3017 22.9998 45.7074 23.5145 45.6093 24.2067L45.2975 26.4708C43.6002 26.902 41.9872 27.5711 40.481 28.4692L38.7245 27.1516C38.1651 26.732 37.3816 26.7874 36.8863 27.2825L32.9088 31.2601C32.4135 31.7554 32.3583 32.5389 32.7778 33.0982L34.0955 34.855C33.2678 36.2391 32.5529 37.8754 32.096 39.6724L29.9267 39.983C29.2343 40.0812 28.7197 40.6755 28.7197 41.3747V46.999C28.7177 47.7003 29.2334 48.2935 29.9267 48.3906L32.097 48.7022C32.1785 49.0217 32.3157 49.3325 32.418 49.6496L35.7913 46.2761C35.7357 42.4988 37.2674 38.8338 39.8694 36.2318C42.4883 33.6129 45.9677 32.1612 49.6636 32.1456C51.328 32.1369 52.9095 33.1327 53.5778 34.7472C54.2353 36.3251 53.8779 38.1333 52.664 39.347L48.8885 43.1225L49.2197 44.7801L50.8774 45.1113L54.6529 41.3358C55.8666 40.122 57.6748 39.7647 59.2595 40.4249C60.8519 41.0822 61.8601 42.6594 61.8542 44.3345C61.8385 48.0322 60.3868 51.5116 57.768 54.1305C55.2265 56.672 51.5787 58.2653 47.7235 58.2086L44.3507 61.5815C44.6672 61.6839 44.9791 61.8217 45.2974 61.903L45.6091 64.0733C45.7052 64.7638 46.3015 65.2803 47.0007 65.2803H52.6252C53.3244 65.2803 53.9187 64.7656 54.0168 64.0733L54.3274 61.9039C55.8774 61.5099 57.6223 60.8149 59.145 59.9045L60.9016 61.2222C61.461 61.6417 62.2446 61.5864 62.7399 61.0912L66.7174 57.1137C67.2126 56.6184 67.268 55.8349 66.8485 55.2755L65.5309 53.5188C66.429 52.0128 67.0982 50.3999 67.5291 48.7023L69.7932 48.3907C70.4856 48.2926 71.0003 47.6983 71.0003 46.9991V41.3748C71.0021 40.6737 70.4865 40.0784 69.7931 39.9831Z" fill="#4C00ED"/>
<path d="M23.4118 64.6217C23.6122 64.8221 25.6009 66.8108 25.4005 66.6105L40.8635 51.1475C41.4128 50.5983 42.303 50.5983 42.8522 51.1475C43.4014 51.6967 43.4015 52.5871 42.8522 53.1364L27.3894 68.5991C27.5896 68.7994 29.5783 70.7882 29.3782 70.588C29.9274 71.1372 30.8177 71.1372 31.3669 70.588L46.6328 55.322C50.0157 55.7054 53.3416 54.5792 55.7789 52.142C57.8706 50.0504 59.0291 47.2741 59.0419 44.3249C59.0438 43.7558 58.7029 43.2382 58.1766 43.0207C57.6503 42.8013 57.0443 42.9216 56.6414 43.3247L51.8016 48.1644L46.8297 47.1702L45.8353 42.1983L50.6752 37.3585C51.0782 36.9555 51.1986 36.3497 50.9792 35.8233C50.7607 35.296 50.2431 34.9551 49.675 34.958C46.7259 34.9707 43.9496 36.1291 41.8579 38.2208C39.4207 40.658 38.2945 43.9842 38.6779 47.3671L23.4118 62.633C22.8627 63.1822 22.8627 64.0726 23.4118 64.6217Z" fill="#4C00ED"/>
</g>
<defs>
<clipPath id="clip0_285_12524">
<rect width="48" height="48" fill="white" transform="translate(23 23)"/>
</clipPath>
</defs>
</svg>
