<svg width="94" height="94" viewBox="0 0 94 94" fill="none" xmlns="http://www.w3.org/2000/svg">
<circle cx="47" cy="47" r="46.5392" fill="white" stroke="#D9D9D9" stroke-width="0.921569"/>
<path d="M43.5967 43.9133H50.4036C51.1802 43.9133 51.8098 43.2837 51.8098 42.5071C51.8098 41.7305 51.1802 41.1008 50.4036 41.1008H43.5967C42.8201 41.1008 42.1904 41.7305 42.1904 42.5071C42.1904 43.2837 42.8201 43.9133 43.5967 43.9133Z" fill="#4C00ED"/>
<path d="M54.6224 48.1321C54.6224 47.3555 53.9928 46.7258 53.2162 46.7258H40.7842C40.0076 46.7258 39.3779 47.3555 39.3779 48.1321C39.3779 48.9087 40.0076 49.5383 40.7842 49.5383H53.2161C53.9928 49.5383 54.6224 48.9087 54.6224 48.1321Z" fill="#4C00ED"/>
<path d="M51.8098 53.7571C51.8098 52.9805 51.1802 52.3508 50.4036 52.3508H43.5967C42.8201 52.3508 42.1904 52.9805 42.1904 53.7571C42.1904 54.5337 42.8201 55.1633 43.5967 55.1633H50.4036C51.1802 55.1633 51.8098 54.5337 51.8098 53.7571Z" fill="#4C00ED"/>
<path d="M45.6812 34.7667L45.6811 26.9983C40.9772 27.3023 36.5685 29.1286 33.0273 32.2397L38.5243 37.7366C40.579 36.0614 43.0491 35.0364 45.6812 34.7667Z" fill="#4C00ED"/>
<path d="M60.6087 49.6944C60.2915 52.7895 58.9303 55.6612 56.6953 57.8962C54.1253 60.4663 50.7128 61.8819 47.0873 61.8819C47.087 61.8819 47.0873 61.8819 47.0871 61.8819C43.8448 61.8819 40.8645 60.7401 38.5256 58.8385L33.0273 64.3368C36.9194 67.7562 41.8593 69.6248 47.0872 69.6248C52.7865 69.6248 58.1446 67.4054 62.1746 63.3755C65.8713 59.6788 68.043 54.8643 68.3772 49.6943H60.6087V49.6944Z" fill="#4C00ED"/>
<path d="M64.119 31.256C60.3448 27.4817 55.3631 25.0421 50.0916 24.3866C49.6796 24.3347 49.2812 24.458 48.9708 24.7323C48.6629 25.0044 48.4932 25.3806 48.4932 25.7915V34.7667C54.8678 35.425 59.9501 40.5072 60.6084 46.8818L69.5835 46.882C69.9944 46.882 70.3707 46.7123 70.6427 46.4043C70.9169 46.0938 71.0397 45.6959 70.9884 45.2836C70.9884 45.2836 70.9884 45.2836 70.9884 45.2835C70.3331 40.0121 67.8934 35.0303 64.119 31.256Z" fill="#4C00ED"/>
<path d="M36.5309 56.8557C34.563 54.4402 33.4933 51.4466 33.4933 48.2884C33.4932 45.1345 34.5644 42.142 36.5349 39.7248L30.186 33.3759C29.9155 33.1053 29.5627 32.9595 29.1843 32.9595C29.1538 32.9595 29.1234 32.9604 29.0925 32.9623C28.6853 32.9875 28.3238 33.1774 28.0746 33.4973C24.7548 37.7583 23 42.8728 23 48.2883C23 53.7037 24.7548 58.8183 28.0747 63.0792C28.3239 63.3991 28.6855 63.589 29.0926 63.6142C29.505 63.6396 29.8937 63.4928 30.186 63.2006L36.5309 56.8557Z" fill="#4C00ED"/>
</svg>
