<svg width="94" height="94" viewBox="0 0 94 94" fill="none" xmlns="http://www.w3.org/2000/svg">
<circle cx="47" cy="47" r="46.5392" fill="white" stroke="#D9D9D9" stroke-width="0.921569"/>
<path d="M51.4476 32.7043V23.0947H31.0298C29.932 23.0947 29.042 23.9847 29.042 25.0825V69.0122C29.042 70.11 29.932 71 31.0298 71H62.8341C63.9319 71 64.8219 70.11 64.8219 69.0122V36.4194H55.1626C53.1142 36.4194 51.4476 34.7528 51.4476 32.7043ZM43.4203 60.665L39.1914 64.894C38.9173 65.168 38.5581 65.3051 38.199 65.3051C37.8399 65.3051 37.4806 65.1681 37.2067 64.8941L35.451 63.1385C34.9029 62.5904 34.9029 61.7018 35.451 61.1537C35.999 60.6056 36.8877 60.6056 37.4358 61.1537L38.199 61.9169L41.4356 58.6803C41.9836 58.1322 42.8723 58.1322 43.4204 58.6803C43.9685 59.2283 43.9685 60.1169 43.4203 60.665ZM43.4203 51.3085L39.1914 55.5375C38.9173 55.8115 38.5581 55.9486 38.199 55.9486C37.8399 55.9486 37.4806 55.8116 37.2067 55.5376L35.451 53.782C34.9029 53.2339 34.9029 52.3453 35.451 51.7972C35.999 51.2491 36.8877 51.2491 37.4358 51.7972L38.199 52.5604L41.4356 49.3238C41.9836 48.7757 42.8723 48.7757 43.4204 49.3238C43.9685 49.8718 43.9685 50.7604 43.4203 51.3085ZM43.4203 41.2375L39.1914 45.4664C38.9173 45.7405 38.5581 45.8775 38.199 45.8775C37.8399 45.8775 37.4806 45.7406 37.2067 45.4664L35.451 43.7108C34.9029 43.1627 34.9029 42.2741 35.451 41.726C35.999 41.1779 36.8877 41.1779 37.4358 41.726L38.199 42.4892L41.4356 39.2527C41.9836 38.7046 42.8723 38.7046 43.4204 39.2527C43.9685 39.8008 43.9685 40.6894 43.4203 41.2375ZM57.4206 63.1906H48.4383C47.6632 63.1906 47.0348 62.5622 47.0348 61.7872C47.0348 61.0121 47.6632 60.3837 48.4383 60.3837H57.4206C58.1957 60.3837 58.824 61.0121 58.824 61.7872C58.824 62.5622 58.1957 63.1906 57.4206 63.1906ZM47.0348 52.4306C47.0348 51.6556 47.6632 51.0272 48.4383 51.0272H57.3804C58.1555 51.0272 58.7839 51.6556 58.7839 52.4306C58.7839 53.2057 58.1555 53.8341 57.3804 53.8341H48.4383C47.6632 53.8341 47.0348 53.2057 47.0348 52.4306ZM58.784 43.0741C58.784 43.8492 58.1556 44.4776 57.3805 44.4776H48.4384C47.6633 44.4776 47.0349 43.8492 47.0349 43.0741C47.0349 42.299 47.6633 41.6707 48.4384 41.6707H57.3805C58.1556 41.6707 58.784 42.299 58.784 43.0741Z" fill="#4C00ED"/>
<path d="M54.2539 32.7043C54.2539 33.205 54.6613 33.6124 55.162 33.6124H64.9577L54.2539 23V32.7043Z" fill="#4C00ED"/>
</svg>
