<svg width="94" height="94" viewBox="0 0 94 94" fill="none" xmlns="http://www.w3.org/2000/svg">
<circle cx="47" cy="47" r="46.5392" fill="white" stroke="#D9D9D9" stroke-width="0.921569"/>
<path fill-rule="evenodd" clip-rule="evenodd" d="M59.0002 68.5H61.0002C62.9902 68.5 64.8962 67.71 66.3042 66.304C67.7102 64.896 68.5002 62.99 68.5002 61C68.5002 59.01 67.7102 57.104 66.3042 55.696C64.8962 54.29 62.9902 53.5 61.0002 53.5H58.9502C58.1222 53.5 57.4502 54.172 57.4502 55C57.4502 55.828 58.1222 56.5 58.9502 56.5H61.0002C62.1942 56.5 63.3382 56.974 64.1822 57.818C65.0262 58.662 65.5002 59.806 65.5002 61C65.5002 62.194 65.0262 63.338 64.1822 64.182C63.3382 65.026 62.1942 65.5 61.0002 65.5H59.0002C58.1722 65.5 57.5002 66.172 57.5002 67C57.5002 67.828 58.1722 68.5 59.0002 68.5Z" fill="#4C00ED"/>
<path fill-rule="evenodd" clip-rule="evenodd" d="M52.9502 65.5H50.9502C49.7562 65.5 48.6122 65.026 47.7682 64.182C46.9242 63.338 46.4502 62.194 46.4502 61C46.4502 59.806 46.9242 58.662 47.7682 57.818C48.6122 56.974 49.7562 56.5 50.9502 56.5H53.0002C53.8282 56.5 54.5002 55.828 54.5002 55C54.5002 54.172 53.8282 53.5 53.0002 53.5H50.9502C48.9602 53.5 47.0522 54.29 45.6462 55.696C44.2402 57.104 43.4502 59.01 43.4502 61C43.4502 62.99 44.2402 64.896 45.6462 66.304C47.0522 67.71 48.9602 68.5 50.9502 68.5H52.9502C53.7782 68.5 54.4502 67.828 54.4502 67C54.4502 66.172 53.7782 65.5 52.9502 65.5Z" fill="#4C00ED"/>
<path fill-rule="evenodd" clip-rule="evenodd" d="M52 62.5H60C60.828 62.5 61.5 61.828 61.5 61C61.5 60.172 60.828 59.5 60 59.5H52C51.172 59.5 50.5 60.172 50.5 61C50.5 61.828 51.172 62.5 52 62.5Z" fill="#4C00ED"/>
<path fill-rule="evenodd" clip-rule="evenodd" d="M68.5 55.17V40.5H25.5V62C25.5 65.59 28.41 68.5 32 68.5H45.118C44.808 68.26 44.512 67.998 44.232 67.718C42.45 65.936 41.45 63.52 41.45 61C41.45 58.48 42.45 56.064 44.232 54.282C46.014 52.5 48.43 51.5 50.95 51.5H53C54.256 51.5 55.356 52.162 55.974 53.156C56.592 52.162 57.694 51.5 58.95 51.5H61C63.52 51.5 65.936 52.5 67.718 54.282C67.998 54.562 68.26 54.86 68.5 55.17ZM25.5 37.5H68.5V32C68.5 28.41 65.59 25.5 62 25.5C54.316 25.5 39.684 25.5 32 25.5C28.41 25.5 25.5 28.41 25.5 32V37.5ZM33.5 30.5C32.672 30.5 32 31.172 32 32C32 32.828 32.672 33.5 33.5 33.5C34.328 33.5 35 32.828 35 32C35 31.172 34.328 30.5 33.5 30.5ZM38.5 30.5C37.672 30.5 37 31.172 37 32C37 32.828 37.672 33.5 38.5 33.5C39.328 33.5 40 32.828 40 32C40 31.172 39.328 30.5 38.5 30.5ZM43.5 30.5C42.672 30.5 42 31.172 42 32C42 32.828 42.672 33.5 43.5 33.5C44.328 33.5 45 32.828 45 32C45 31.172 44.328 30.5 43.5 30.5Z" fill="#4C00ED"/>
</svg>
