<svg width="94" height="94" viewBox="0 0 94 94" fill="none" xmlns="http://www.w3.org/2000/svg">
<circle cx="47" cy="47" r="46.5392" fill="white" stroke="#D9D9D9" stroke-width="0.921569"/>
<path d="M47 37.1562C46.5015 37.1562 46.0497 37.4117 45.7929 37.8416L37.3554 51.9041C37.2249 52.121 37.1562 52.3696 37.1562 52.625C37.1562 53.4009 37.7866 54.0312 38.5625 54.0312H55.4375C56.2134 54.0312 56.8438 53.4009 56.8438 52.625C56.8438 52.3695 56.7751 52.121 56.646 51.9068L48.2071 37.8416C47.9503 37.4117 47.4985 37.1562 47 37.1562ZM48.4062 51.2188H45.5938V48.4062H48.4062V51.2188ZM48.4062 45.5938H45.5938V39.9688H48.4062V45.5938Z" fill="#4C00ED"/>
<path d="M55.4375 35.75V24.947L47 23L27.3125 27.5428V45.6875C27.3125 61.5875 36.3007 65.7362 41.6716 68.215C44.1037 69.337 45.5938 70.0717 45.5938 71H48.4062C48.4062 70.0717 49.8963 69.337 52.3284 68.215C57.6993 65.7362 66.6875 61.5875 66.6875 45.6875V27.5428L58.25 25.5958V32.9375H61.9318L58.1017 40.5977L55.5858 39.3398L57.3807 35.75H55.4375ZM59.0562 50.4566C59.4489 51.1089 59.6562 51.8587 59.6562 52.625C59.6562 54.9513 57.7638 56.8438 55.4375 56.8438H38.5625C36.2362 56.8438 34.3438 54.9513 34.3438 52.625C34.3438 51.8574 34.5511 51.1075 34.9453 50.4538L43.3813 36.3941C44.1394 35.1293 45.5264 34.3438 47 34.3438C48.4736 34.3438 49.8606 35.1293 50.6187 36.3941L59.0562 50.4566Z" fill="#4C00ED"/>
</svg>
