<svg width="185" height="50" viewBox="0 0 185 50" fill="none" xmlns="http://www.w3.org/2000/svg">
<path d="M161.049 18.2991C161.049 17.6384 161.132 17.1428 161.132 16.6473C162.701 16.317 164.518 17.2254 165.426 18.712C165.922 19.6205 166.087 20.529 166.087 21.5201C166.087 25.4018 166.087 29.3661 166.004 33.2478C166.004 33.8259 166.004 34.3214 166.004 35.0647C164.765 35.1473 163.609 35.2299 162.453 34.9821C162.04 34.8995 161.71 34.4866 161.379 34.0736C161.214 33.9085 161.132 33.5781 160.966 33.3303C160.223 33.8259 159.48 34.3214 158.736 34.7344C156.176 36.0558 151.799 35.7254 149.074 33.0826C145.357 29.4487 145.192 22.2634 148.908 18.5469C151.882 15.5736 157.332 14.9129 160.553 17.8862C160.636 18.0513 160.801 18.1339 161.049 18.2991ZM156.259 30.7701C159.067 30.6875 161.132 28.4576 161.049 25.567C160.966 22.8415 158.736 20.6942 156.011 20.7768C153.286 20.8594 151.303 23.0067 151.386 25.8973C151.469 28.7879 153.616 30.8527 156.259 30.7701Z" fill="white"/>
<path d="M103.815 27.5491C99.1896 27.5491 94.6472 27.5491 89.9396 27.5491C90.3526 29.0357 91.0959 30.1094 92.3347 30.6875C93.8213 31.3482 95.3079 31.2656 96.8771 31.0178C97.2901 30.9353 97.7856 30.8527 98.1985 30.6875C100.428 30.0268 101.832 30.7701 102.824 33C102.245 33.3303 101.667 33.7433 101.089 34.0736C97.7856 35.7254 94.3994 35.8906 90.9307 34.8995C87.5445 33.9911 85.0668 30.6875 84.7365 27.1362C84.5713 25.567 84.6539 23.9152 85.1494 22.346C86.3883 18.712 89.6093 16.2344 93.4084 15.9866C95.6383 15.8214 97.703 16.1518 99.6852 17.308C101.998 18.712 103.319 20.7768 103.732 23.4196C103.897 24.8237 103.897 26.0625 103.815 27.5491ZM98.6941 23.75C98.1985 21.2723 96.299 20.1161 93.7387 20.2812C92.2521 20.3638 89.9396 22.0982 90.1874 23.75C92.9954 23.75 95.8035 23.75 98.6941 23.75Z" fill="white"/>
<path d="M132.803 20.8593C131.729 20.8593 130.904 20.8593 129.913 20.8593C129.83 19.3727 129.83 17.9687 129.913 16.4821C130.904 16.4821 131.812 16.4821 132.803 16.4821C132.803 14.2521 132.803 12.1048 132.803 9.9575C133.877 9.79232 134.785 9.79232 135.694 9.9575C137.015 10.2879 138.006 11.5267 138.089 12.9307C138.089 13.674 138.089 14.4999 138.089 15.2432C138.089 15.5736 138.089 15.9039 138.171 16.3995C138.75 16.3995 139.328 16.3995 139.823 16.3995C140.567 16.3995 141.392 16.3995 142.136 16.3995C143.292 16.4821 144.118 17.4731 144.118 18.6294C144.118 19.7856 143.292 20.6941 142.136 20.7767C141.227 20.8593 140.319 20.7767 139.41 20.7767C138.997 20.7767 138.667 20.7767 138.254 20.7767C138.171 21.1071 138.171 21.4374 138.171 21.6852C138.171 23.5847 138.171 25.4843 138.171 27.4664C138.171 27.8794 138.254 28.2923 138.337 28.7053C138.667 30.1919 139.575 30.8526 140.979 30.77C141.31 30.77 141.64 30.6874 141.888 30.6874C143.127 30.6048 144.118 31.1829 144.613 32.4218C144.861 32.9173 144.944 33.4954 145.192 34.0736C144.035 34.8995 142.796 35.3124 141.392 35.4776C140.401 35.5602 139.41 35.5602 138.337 35.5602C135.116 35.3124 133.629 33.2477 133.134 30.6874C132.968 29.6963 132.886 28.7879 132.886 27.7968C132.886 25.8972 132.886 23.9977 132.886 22.1807C132.803 21.6852 132.803 21.3548 132.803 20.8593Z" fill="white"/>
<path d="M169.061 32.174C169.226 31.9262 169.391 31.7611 169.473 31.5959C170.382 30.0267 172.282 29.7789 173.768 30.5222C174.594 30.9352 175.503 31.1829 176.494 31.2655C177.072 31.3481 177.732 31.1829 178.311 31.0178C179.467 30.5222 179.549 29.2834 178.476 28.6227C177.898 28.2923 177.237 28.0446 176.576 27.7968C175.255 27.3012 173.933 26.8883 172.694 26.2276C169.143 24.328 169.143 19.2075 172.447 17.2254C172.694 17.0602 172.942 16.895 173.273 16.7298C176.989 15.3258 180.458 15.6562 183.596 18.1338C183.761 18.2164 183.844 18.3816 184.009 18.5468C183.679 19.0423 183.348 19.5379 182.936 19.9508C182.027 20.9419 180.871 21.107 179.549 20.6941C178.889 20.5289 178.228 20.3637 177.485 20.1986C177.154 20.116 176.824 20.1986 176.576 20.1986C175.833 20.2812 175.337 20.7767 175.255 21.2722C175.172 21.8504 175.42 22.4285 176.246 22.7588C177.319 23.2544 178.476 23.5021 179.549 23.9977C180.458 24.4106 181.449 24.8236 182.275 25.3191C185.413 27.3838 185 31.4307 182.77 33.4954C181.614 34.5691 180.21 35.1472 178.641 35.395C175.998 35.8079 173.603 35.395 171.29 34.0736C170.465 33.6606 169.639 32.9999 169.061 32.174Z" fill="white"/>
<path d="M64.0068 16.4821C65.4934 16.4821 66.9801 16.3995 68.3841 16.4821C69.4577 16.5647 70.1184 17.2254 70.5314 18.2164C71.5225 20.9419 72.5135 23.6673 73.5872 26.3102C73.7524 26.7231 73.9176 27.1361 74.1653 27.7968C74.4131 27.2187 74.5783 26.8883 74.6609 26.558C75.6519 23.8325 76.7256 21.1071 77.7167 18.299C78.2948 16.8124 78.8729 16.3995 80.4421 16.3995C81.5984 16.3995 82.8372 16.3995 84.076 16.3995C83.9934 16.6472 83.9934 16.895 83.9109 17.1428C81.5158 22.6763 79.0381 28.2923 76.643 33.8258C76.3126 34.6517 75.8171 35.1472 74.826 34.9821C74.3305 34.8995 73.7524 34.8995 73.2568 34.9821C72.3484 35.0647 71.8528 34.7343 71.5225 33.8258C70.7792 32.0088 69.9533 30.1919 69.1274 28.3749C67.5582 24.741 65.989 21.1071 64.3372 17.4731C64.2546 17.2254 64.172 16.895 64.0068 16.4821Z" fill="white"/>
<path d="M107.118 16.4822C108.109 16.4822 108.935 16.4822 109.843 16.4822C110.999 16.5648 111.66 17.1429 112.238 18.6295C112.486 18.3817 112.734 18.134 112.899 17.8862C113.973 16.6473 115.377 15.9866 117.028 15.9866C118.598 15.9866 119.506 16.9777 119.341 18.5469C119.258 19.4554 119.176 20.4465 119.011 21.4375C118.515 21.3549 118.02 21.2723 117.524 21.1898C114.964 20.7768 112.982 22.0982 112.486 24.6585C112.321 25.4018 112.238 26.1451 112.238 26.971C112.238 29.2835 112.238 31.6786 112.238 33.9911C112.238 34.3215 112.238 34.6518 112.238 35.0648C111.247 35.0648 110.256 35.1473 109.348 35.0648C108.191 34.8996 107.2 33.8259 107.118 32.6697C107.118 32.4219 107.118 32.0915 107.118 31.8438C107.118 27.0536 107.118 22.2634 107.035 17.5558C107.035 17.1429 107.118 16.8951 107.118 16.4822Z" fill="white"/>
<path d="M121.984 35.0647C121.984 34.6518 121.901 34.404 121.901 34.1563C121.901 29.2009 121.901 24.2455 121.818 19.2902C121.818 18.8772 121.818 18.3817 121.901 17.9687C122.149 17.1429 122.809 16.5647 123.718 16.4821C124.792 16.3996 125.865 16.4821 127.021 16.4821C127.021 16.8951 127.021 17.2254 127.021 17.6384C127.021 22.5112 127.021 27.4665 126.939 32.3393C126.939 34.2388 126.113 35.0647 124.213 35.0647C123.635 35.0647 122.809 35.0647 121.984 35.0647Z" fill="white"/>
<path d="M124.544 14.5C122.727 14.5 121.323 13.1786 121.323 11.3616C121.406 9.21428 122.975 8.22321 124.462 8.22321C126.279 8.22321 127.683 9.54463 127.683 11.3616C127.765 13.096 126.361 14.5 124.544 14.5Z" fill="white"/>
<path d="M118.845 49.5178C117.937 49.5178 117.276 49.5178 116.368 49.5178C115.79 47.866 115.211 46.2142 114.468 44.1495C113.725 46.2142 113.147 47.7834 112.569 49.5178C110.091 49.5178 112.569 49.5178 110.091 49.5178C109.1 46.462 108.109 43.5714 107.035 40.3504C109.43 40.3504 108.109 40.3504 109.43 40.3504C110.091 42.25 110.752 44.3973 111.412 46.2142C111.578 46.2142 111.247 46.2142 111.412 46.2142C111.991 44.4799 112.899 42.1674 113.477 40.3504C114.22 40.3504 114.881 40.3504 115.624 40.3504C116.285 42.1674 116.863 43.9843 117.607 46.2142C118.267 44.3973 118.68 42.9933 119.176 41.5892C119.589 40.5156 119.589 40.3504 119.589 40.3504C119.589 40.3504 119.754 40.3504 121.901 40.3504C119.589 47.2879 119.919 46.2142 118.845 49.5178Z" fill="white"/>
<path d="M172.032 45.6361C169.968 45.6361 168.068 45.6361 166.086 45.6361C166.169 47.2879 167.82 47.9486 170.381 46.7924C170.711 47.2053 171.041 47.7009 171.372 48.1964C169.39 50.0134 166.912 50.2611 165.012 48.8571C163.195 47.5357 162.617 44.7276 163.608 42.5803C164.517 40.5982 166.664 39.6897 168.894 40.1852C171.041 40.6808 172.198 42.5803 172.032 45.6361ZM169.39 43.8192C169.472 42.6629 168.729 42.25 167.82 42.25C166.829 42.1674 166.086 42.5803 165.838 43.8192C167.077 43.8192 168.233 43.8192 169.39 43.8192Z" fill="white"/>
<path d="M133.96 45.7187C131.896 45.7187 129.996 45.7187 128.014 45.7187C128.262 47.2879 129.831 47.9486 132.308 46.7924C132.639 47.2053 132.969 47.7008 133.382 48.1138C131.648 49.9308 129.253 50.2611 127.271 48.9397C125.371 47.7008 124.628 45.058 125.536 42.7455C126.445 40.6808 128.592 39.6071 130.904 40.1852C133.134 40.6808 134.208 42.5803 133.96 45.7187ZM131.483 43.8192C131.4 42.4977 130.574 42.1674 129.583 42.1674C128.675 42.25 128.014 42.6629 127.931 43.8192C129.17 43.8192 130.326 43.8192 131.483 43.8192Z" fill="white"/>
<path d="M138.336 40.8459C139.905 40.5156 141.144 40.1026 142.3 40.1026C144.86 40.0201 146.182 41.3415 146.264 43.9018C146.347 45.7187 146.264 47.5357 146.264 49.3526C144.447 49.5178 142.796 49.683 141.144 49.683C139.492 49.683 138.418 48.6919 138.253 47.2879C138.005 45.6361 138.831 44.5625 140.566 44.1495C141.557 43.9018 142.548 43.9018 143.539 43.8192C142.713 42.0848 142.383 42.0022 139.409 42.9107C139.162 42.3326 138.914 41.837 138.336 40.8459ZM143.869 45.7187C142.135 45.7187 142.63 45.7187 142.135 45.7187C142.052 45.7187 141.887 45.7187 141.722 45.7187C141.226 45.7187 140.813 46.1317 140.813 46.6272C140.813 47.1227 141.144 47.5357 141.474 47.7009C142.3 47.9486 143.126 47.4531 143.869 45.7187Z" fill="white"/>
<path d="M156.507 49.4352C155.599 49.4352 154.855 49.4352 153.782 49.4352C152.708 46.5445 151.469 43.4887 150.23 40.2678C151.882 40.2678 151.8 40.2678 152.873 40.2678C153.617 42.1673 154.277 43.9017 155.186 46.2142C156.094 43.9843 156.838 42.1673 157.581 40.2678C158.242 40.2678 158.902 40.2678 159.976 40.2678C158.737 43.4062 157.664 46.462 156.507 49.4352Z" fill="white"/>
<path d="M183.513 40.3504C182.357 42.3325 183.513 40.3504 182.357 42.3325C179.136 42.3325 179.549 42.0022 179.466 46.2968C179.466 49.6004 179.466 48.4442 179.466 49.6004C176.988 49.6004 179.466 49.6004 176.988 49.6004C176.988 49.1049 176.988 49.27 176.988 49.1049C176.988 46.2142 176.988 43.4062 176.988 40.433C178.723 40.3504 181.613 40.3504 183.513 40.3504Z" fill="white"/>
<path d="M46.8284 8.96656H9.25028V8.30585H46.8284V8.96656ZM2.56055 15.4911V16.1518H55.4177V15.4911H2.56055ZM20.2347 3.2679H35.5963V2.5246H20.2347V3.2679ZM12.8016 32.5871H44.7637V31.9264H12.8016V32.5871ZM19.4914 39.7724H35.5963V39.1117H19.4914V39.7724ZM48.5628 23.9978H5.53376V24.6585H48.5628V23.9978Z" fill="white"/>
<path d="M22.3807 2.93746C22.3807 4.09371 21.4722 4.91961 20.3986 4.91961C19.2423 4.91961 18.4164 4.01113 18.4164 2.93746C18.3338 1.78121 19.2423 0.955322 20.3986 0.955322C21.4722 0.955322 22.3807 1.78121 22.3807 2.93746ZM35.595 0.955322C34.4388 0.955322 33.6129 1.8638 33.6129 2.93746C33.6129 4.09371 34.5213 4.91961 35.595 4.91961C36.7513 4.91961 37.5772 4.01113 37.5772 2.93746C37.6597 1.78121 36.7513 0.955322 35.595 0.955322ZM46.8272 6.65398C45.6709 6.65398 44.845 7.56246 44.845 8.63612C44.845 9.70979 45.7535 10.6183 46.8272 10.6183C47.9834 10.6183 48.8093 9.70979 48.8093 8.63612C48.8093 7.56246 47.9834 6.65398 46.8272 6.65398ZM30.3919 6.65398C29.2356 6.65398 28.4097 7.56246 28.4097 8.63612C28.4097 9.70979 29.3182 10.6183 30.3919 10.6183C31.5481 10.6183 32.374 9.70979 32.374 8.63612C32.374 7.56246 31.5481 6.65398 30.3919 6.65398ZM55.4164 13.8392C54.2602 13.8392 53.4343 14.7477 53.4343 15.8214C53.4343 16.8951 54.3428 17.8035 55.4164 17.8035C56.4901 17.8035 57.3986 16.8951 57.3986 15.8214C57.3986 14.7477 56.5727 13.8392 55.4164 13.8392ZM47.9008 13.8392C46.7446 13.8392 45.9187 14.7477 45.9187 15.8214C45.9187 16.8951 46.8272 17.8035 47.9008 17.8035C49.0571 17.8035 49.883 16.8951 49.883 15.8214C49.883 14.7477 48.9745 13.8392 47.9008 13.8392ZM37.7423 11.6919C35.4298 11.6919 33.6129 13.5089 33.6129 15.8214C33.6129 18.1339 35.4298 19.9509 37.7423 19.9509C40.0548 19.9509 41.8718 18.1339 41.8718 15.8214C41.8718 13.5089 40.0548 11.6919 37.7423 11.6919ZM48.5615 22.2634C47.4053 22.2634 46.5794 23.1718 46.5794 24.2455C46.5794 25.4017 47.4879 26.2276 48.5615 26.2276C49.7178 26.2276 50.5437 25.3192 50.5437 24.2455C50.5437 23.1718 49.6352 22.2634 48.5615 22.2634ZM28.0794 20.8593C26.1798 20.8593 24.6106 22.4285 24.6106 24.3281C24.6106 26.2276 26.1798 27.7968 28.0794 27.7968C29.9789 27.7968 31.5481 26.2276 31.5481 24.3281C31.4655 22.4285 29.9789 20.8593 28.0794 20.8593ZM5.53251 22.2634C4.37626 22.2634 3.55036 23.1718 3.55036 24.2455C3.55036 25.4017 4.45885 26.2276 5.53251 26.2276C6.68876 26.2276 7.51465 25.3192 7.51465 24.2455C7.51465 23.1718 6.60617 22.2634 5.53251 22.2634ZM16.2691 22.2634C15.1129 22.2634 14.287 23.1718 14.287 24.2455C14.287 25.4017 15.1955 26.2276 16.2691 26.2276C17.4254 26.2276 18.2513 25.3192 18.2513 24.2455C18.3338 23.1718 17.4254 22.2634 16.2691 22.2634ZM12.8004 30.1919C11.6441 30.1919 10.8182 31.1004 10.8182 32.1741C10.8182 33.3303 11.7267 34.1562 12.8004 34.1562C13.9566 34.1562 14.7825 33.2477 14.7825 32.1741C14.8651 31.1004 13.9566 30.1919 12.8004 30.1919ZM45.8361 30.1919C44.6798 30.1919 43.8539 31.1004 43.8539 32.1741C43.8539 33.3303 44.7624 34.1562 45.8361 34.1562C46.9923 34.1562 47.8182 33.2477 47.8182 32.1741C47.9008 31.1004 46.9923 30.1919 45.8361 30.1919ZM19.4901 37.3772C18.3338 37.3772 17.508 38.2857 17.508 39.3593C17.508 40.5156 18.4164 41.3415 19.4901 41.3415C20.6463 41.3415 21.4722 40.433 21.4722 39.3593C21.5548 38.2857 20.6463 37.3772 19.4901 37.3772ZM36.7513 37.3772C35.595 37.3772 34.7691 38.2857 34.7691 39.3593C34.7691 40.5156 35.6776 41.3415 36.7513 41.3415C37.9075 41.3415 38.7334 40.433 38.7334 39.3593C38.816 38.2857 37.9075 37.3772 36.7513 37.3772ZM28.4097 44.5625C27.2535 44.5625 26.4276 45.4709 26.4276 46.5446C26.4276 47.7009 27.3361 48.5267 28.4097 48.5267C29.566 48.5267 30.3919 47.6183 30.3919 46.5446C30.3919 45.3884 29.4834 44.5625 28.4097 44.5625ZM2.55929 13.8392C1.40304 13.8392 0.577148 14.7477 0.577148 15.8214C0.577148 16.8951 1.48563 17.8035 2.55929 17.8035C3.71554 17.8035 4.54143 16.8951 4.54143 15.8214C4.54143 14.7477 3.63295 13.8392 2.55929 13.8392ZM19.4901 13.0134C17.9209 13.0134 16.5995 14.3348 16.5995 15.904C16.5995 17.4732 17.9209 18.7946 19.4901 18.7946C21.0593 18.7946 22.3807 17.4732 22.3807 15.904C22.3807 14.3348 21.1419 13.0134 19.4901 13.0134ZM9.24902 6.65398C8.09277 6.65398 7.26688 7.56246 7.26688 8.63612C7.26688 9.70979 8.17536 10.6183 9.24902 10.6183C10.4053 10.6183 11.2312 9.70979 11.2312 8.63612C11.2312 7.56246 10.4053 6.65398 9.24902 6.65398Z" fill="white"/>
</svg>
