<?xml version="1.0" encoding="utf-8"?>
<!-- Generator: Adobe Illustrator 26.4.1, SVG Export Plug-In . SVG Version: 6.00 Build 0)  -->
<svg version="1.1" id="Layer_1" xmlns="http://www.w3.org/2000/svg" xmlns:xlink="http://www.w3.org/1999/xlink" x="0px" y="0px"
	 viewBox="0 0 224 71" style="enable-background:new 0 0 224 71;" xml:space="preserve">
<style type="text/css">
	.st0{fill:url(#SVGID_1_);}
	.st1{fill:url(#SVGID_00000011013093857922162620000017736128045033421963_);}
	.st2{fill:url(#SVGID_00000163793576436364339610000006041402288695307696_);}
	.st3{fill:url(#SVGID_00000113353949354451731270000000242243937449300110_);}
	.st4{fill:url(#SVGID_00000085236558043850979630000009245006716399896247_);}
	.st5{fill:url(#SVGID_00000165201868340361559300000017719125657493967288_);}
	.st6{fill:url(#SVGID_00000132064330984293240880000009919431335071468982_);}
	.st7{fill:url(#SVGID_00000104701184627891747330000005461126693015412918_);}
	.st8{fill:url(#SVGID_00000088104980807201265250000018211559709027941546_);}
	.st9{fill:url(#SVGID_00000142883776484109270620000015132572772767597964_);}
</style>
<g>
	<linearGradient id="SVGID_1_" gradientUnits="userSpaceOnUse" x1="189.0808" y1="46.1385" x2="189.0808" y2="22.5091">
		<stop  offset="0" style="stop-color:#082FB5"/>
		<stop  offset="1" style="stop-color:#490082"/>
	</linearGradient>
	<path class="st0" d="M195,25.3c0-0.8,0.1-1.4,0.1-2c1.9-0.4,4.1,0.7,5.2,2.5c0.6,1.1,0.8,2.2,0.8,3.4c0,4.7,0,9.5-0.1,14.2
		c0,0.7,0,1.3,0,2.2c-1.5,0.1-2.9,0.2-4.3-0.1c-0.5-0.1-0.9-0.6-1.3-1.1c-0.2-0.2-0.3-0.6-0.5-0.9c-0.9,0.6-1.8,1.2-2.7,1.7
		c-3.1,1.6-8.4,1.2-11.7-2c-4.5-4.4-4.7-13.1-0.2-17.6c3.6-3.6,10.2-4.4,14.1-0.8C194.5,25,194.7,25,195,25.3z M189.2,40.4
		c3.4-0.1,5.9-2.8,5.8-6.3c-0.1-3.3-2.8-5.9-6.1-5.8c-3.3,0.1-5.7,2.7-5.6,6.2C183.4,37.9,186,40.5,189.2,40.4z"/>
	
		<linearGradient id="SVGID_00000039126962138309608190000009772821118538274721_" gradientUnits="userSpaceOnUse" x1="114.138" y1="46.1153" x2="114.138" y2="22.4994">
		<stop  offset="0" style="stop-color:#082FB5"/>
		<stop  offset="1" style="stop-color:#490082"/>
	</linearGradient>
	<path style="fill:url(#SVGID_00000039126962138309608190000009772821118538274721_);" d="M125.7,36.5c-5.6,0-11.1,0-16.8,0
		c0.5,1.8,1.4,3.1,2.9,3.8c1.8,0.8,3.6,0.7,5.5,0.4c0.5-0.1,1.1-0.2,1.6-0.4c2.7-0.8,4.4,0.1,5.6,2.8c-0.7,0.4-1.4,0.9-2.1,1.3
		c-4,2-8.1,2.2-12.3,1c-4.1-1.1-7.1-5.1-7.5-9.4c-0.2-1.9-0.1-3.9,0.5-5.8c1.5-4.4,5.4-7.4,10-7.7c2.7-0.2,5.2,0.2,7.6,1.6
		c2.8,1.7,4.4,4.2,4.9,7.4C125.8,33.1,125.8,34.7,125.7,36.5z M119.5,31.9c-0.6-3-2.9-4.4-6-4.2c-1.8,0.1-4.6,2.2-4.3,4.2
		C112.6,31.9,116,31.9,119.5,31.9z"/>
	
		<linearGradient id="SVGID_00000088108261698844473460000005261050798142424745_" gradientUnits="userSpaceOnUse" x1="166.4511" y1="46.0881" x2="166.4511" y2="15.02">
		<stop  offset="0" style="stop-color:#082FB5"/>
		<stop  offset="1" style="stop-color:#490082"/>
	</linearGradient>
	<path style="fill:url(#SVGID_00000088108261698844473460000005261050798142424745_);" d="M160.8,28.4c-1.3,0-2.3,0-3.5,0
		c-0.1-1.8-0.1-3.5,0-5.3c1.2,0,2.3,0,3.5,0c0-2.7,0-5.3,0-7.9c1.3-0.2,2.4-0.2,3.5,0c1.6,0.4,2.8,1.9,2.9,3.6c0,0.9,0,1.9,0,2.8
		c0,0.4,0,0.8,0.1,1.4c0.7,0,1.4,0,2,0c0.9,0,1.9,0,2.8,0c1.4,0.1,2.4,1.3,2.4,2.7c0,1.4-1,2.5-2.4,2.6c-1.1,0.1-2.2,0-3.3,0
		c-0.5,0-0.9,0-1.4,0c-0.1,0.4-0.1,0.8-0.1,1.1c0,2.3,0,4.6,0,7c0,0.5,0.1,1,0.2,1.5c0.4,1.8,1.5,2.6,3.2,2.5c0.4,0,0.8-0.1,1.1-0.1
		c1.5-0.1,2.7,0.6,3.3,2.1c0.3,0.6,0.4,1.3,0.7,2c-1.4,1-2.9,1.5-4.6,1.7c-1.2,0.1-2.4,0.1-3.7,0.1c-3.9-0.3-5.7-2.8-6.3-5.9
		c-0.2-1.2-0.3-2.3-0.3-3.5c0-2.3,0-4.6,0-6.8C160.8,29.4,160.8,29,160.8,28.4z"/>
	
		<linearGradient id="SVGID_00000029023886795217926450000009889737154200880028_" gradientUnits="userSpaceOnUse" x1="214.0195" y1="46.2158" x2="214.0195" y2="22.276">
		<stop  offset="0" style="stop-color:#082FB5"/>
		<stop  offset="1" style="stop-color:#490082"/>
	</linearGradient>
	<path style="fill:url(#SVGID_00000029023886795217926450000009889737154200880028_);" d="M204.7,42.1c0.2-0.3,0.4-0.5,0.5-0.7
		c1.1-1.9,3.4-2.2,5.2-1.3c1,0.5,2.1,0.8,3.3,0.9c0.7,0.1,1.5-0.1,2.2-0.3c1.4-0.6,1.5-2.1,0.2-2.9c-0.7-0.4-1.5-0.7-2.3-1
		c-1.6-0.6-3.2-1.1-4.7-1.9c-4.3-2.3-4.3-8.5-0.3-10.9c0.3-0.2,0.6-0.4,1-0.6c4.5-1.7,8.7-1.3,12.5,1.7c0.2,0.1,0.3,0.3,0.5,0.5
		c-0.4,0.6-0.8,1.2-1.3,1.7c-1.1,1.2-2.5,1.4-4.1,0.9c-0.8-0.2-1.6-0.4-2.5-0.6c-0.4-0.1-0.8,0-1.1,0c-0.9,0.1-1.5,0.7-1.6,1.3
		c-0.1,0.7,0.2,1.4,1.2,1.8c1.3,0.6,2.7,0.9,4,1.5c1.1,0.5,2.3,1,3.3,1.6c3.8,2.5,3.3,7.4,0.6,9.9c-1.4,1.3-3.1,2-5,2.3
		c-3.2,0.5-6.1,0-8.9-1.6C206.4,43.9,205.4,43.1,204.7,42.1z"/>
	
		<linearGradient id="SVGID_00000037690482471360706500000015979196720993908924_" gradientUnits="userSpaceOnUse" x1="89.6463" y1="45.5658" x2="89.6463" y2="23.0467">
		<stop  offset="0" style="stop-color:#082FB5"/>
		<stop  offset="1" style="stop-color:#490082"/>
	</linearGradient>
	<path style="fill:url(#SVGID_00000037690482471360706500000015979196720993908924_);" d="M77.5,23.1c1.8,0,3.6-0.1,5.3,0
		c1.3,0.1,2.1,0.9,2.6,2.1c1.2,3.3,2.4,6.6,3.7,9.8c0.2,0.5,0.4,1,0.7,1.8c0.3-0.7,0.5-1.1,0.6-1.5c1.2-3.3,2.5-6.6,3.7-10
		c0.7-1.8,1.4-2.3,3.3-2.3c1.4,0,2.9,0,4.4,0c-0.1,0.3-0.1,0.6-0.2,0.9c-2.9,6.7-5.9,13.5-8.8,20.2c-0.4,1-1,1.6-2.2,1.4
		c-0.6-0.1-1.3-0.1-1.9,0c-1.1,0.1-1.7-0.3-2.1-1.4c-0.9-2.2-1.9-4.4-2.9-6.6c-1.9-4.4-3.8-8.8-5.8-13.2
		C77.8,24,77.7,23.6,77.5,23.1z"/>
	
		<linearGradient id="SVGID_00000117642559096014192470000005598975276202007479_" gradientUnits="userSpaceOnUse" x1="137.0712" y1="45.5449" x2="137.0712" y2="22.4664">
		<stop  offset="0" style="stop-color:#082FB5"/>
		<stop  offset="1" style="stop-color:#490082"/>
	</linearGradient>
	<path style="fill:url(#SVGID_00000117642559096014192470000005598975276202007479_);" d="M129.7,23.1c1.2,0,2.2,0,3.3,0
		c1.4,0.1,2.2,0.8,2.9,2.6c0.3-0.3,0.6-0.6,0.8-0.9c1.3-1.5,3-2.3,5-2.3c1.9,0,3,1.2,2.8,3.1c-0.1,1.1-0.2,2.3-0.4,3.5
		c-0.6-0.1-1.2-0.2-1.8-0.3c-3.1-0.5-5.5,1.1-6.1,4.2c-0.2,0.9-0.3,1.8-0.3,2.8c0,2.8,0,5.7,0,8.5c0,0.4,0,0.8,0,1.3
		c-1.2,0-2.4,0.1-3.5,0c-1.4-0.2-2.6-1.5-2.7-2.9c0-0.3,0-0.7,0-1c0-5.8,0-11.6-0.1-17.3C129.6,23.9,129.7,23.5,129.7,23.1z"/>
	
		<linearGradient id="SVGID_00000179612032540765831300000001427931130223253672_" gradientUnits="userSpaceOnUse" x1="150.7767" y1="45.5551" x2="150.7767" y2="23.0402">
		<stop  offset="0" style="stop-color:#082FB5"/>
		<stop  offset="1" style="stop-color:#490082"/>
	</linearGradient>
	<path style="fill:url(#SVGID_00000179612032540765831300000001427931130223253672_);" d="M147.7,45.6c0-0.5-0.1-0.8-0.1-1.1
		c0-6,0-12-0.1-18c0-0.5,0-1.1,0.1-1.6c0.3-1,1.1-1.7,2.2-1.8c1.3-0.1,2.6,0,4,0c0,0.5,0,0.9,0,1.4c0,5.9,0,11.9-0.1,17.8
		c0,2.3-1,3.3-3.3,3.3C149.7,45.6,148.7,45.6,147.7,45.6z"/>
	
		<linearGradient id="SVGID_00000091724103528659868450000000203672213706173886_" gradientUnits="userSpaceOnUse" x1="150.811" y1="20.7207" x2="150.811" y2="13.0832">
		<stop  offset="0" style="stop-color:#082FB5"/>
		<stop  offset="1" style="stop-color:#490082"/>
	</linearGradient>
	<path style="fill:url(#SVGID_00000091724103528659868450000000203672213706173886_);" d="M150.8,20.7c-2.2,0-3.9-1.6-3.9-3.8
		c0.1-2.6,2-3.8,3.8-3.8c2.2,0,3.9,1.6,3.9,3.8C154.7,19,153,20.7,150.8,20.7z"/>
	<path d="M121,66.4c-1.4,0-2.5,0-3.8,0c-0.9-2.6-1.8-5.1-3-8.4c-1.1,3.2-2,5.7-3,8.4c-3.8,0,0,0-3.8,0c-1.6-4.7-3.1-9.4-4.8-14.4
		c3.7,0,1.7,0,3.7,0c1,2.9,2.1,6.4,3,9.2c0.2,0-0.2,0,0,0c0.9-2.7,2.3-6.3,3.3-9.2c1.1,0,2.1,0,3.4,0c1,2.8,1.9,5.6,3.1,9.1
		c1-2.9,1.7-5.1,2.4-7.2c0.6-1.7,0.7-1.9,0.7-1.9s0.3,0,3.7,0C122.2,63,122.6,61.3,121,66.4z"/>
	<path d="M204.3,60.4c-3.2,0-6.2,0-9.3,0c0.2,2.7,2.7,3.6,6.7,1.8c0.5,0.7,1,1.4,1.6,2.2c-3.1,2.8-6.9,3.2-10,1
		c-2.8-2-3.8-6.4-2.2-9.8c1.5-3,4.8-4.5,8.2-3.7C202.7,52.7,204.5,55.6,204.3,60.4z M200.1,57.5c0.1-1.8-1.1-2.4-2.4-2.5
		c-1.5-0.1-2.7,0.6-3.2,2.5C196.5,57.5,198.3,57.5,200.1,57.5z"/>
	<path d="M144.7,60.5c-3.2,0-6.2,0-9.3,0c0.4,2.4,2.9,3.5,6.7,1.7c0.5,0.6,1.1,1.4,1.6,2c-2.7,2.9-6.4,3.3-9.5,1.3
		c-3-1.9-4.2-6.1-2.7-9.7c1.4-3.3,4.8-4.9,8.4-4.1C143.3,52.7,145,55.6,144.7,60.5z M140.8,57.5c-0.2-2-1.4-2.6-3-2.5
		c-1.4,0.1-2.5,0.7-2.5,2.5C137.2,57.5,138.9,57.5,140.8,57.5z"/>
	<path d="M151.5,52.8c2.5-0.5,4.3-1.1,6.2-1.2c4-0.1,6,2,6.2,5.9c0.1,2.9,0,5.8,0,8.6c-2.9,0.2-5.4,0.5-8,0.5
		c-2.6,0-4.3-1.5-4.5-3.8c-0.3-2.6,0.9-4.3,3.7-4.9c1.5-0.3,3.1-0.3,4.7-0.5c-1.3-2.7-1.8-2.8-6.5-1.5
		C152.8,55.3,152.4,54.5,151.5,52.8z M160.1,60.5c-2.7,0-1.9,0-2.7,0c-0.1,0-0.4,0-0.6,0c-0.8,0-1.4,0.6-1.4,1.4c0,0,0,0,0,0
		c0,0.8,0.5,1.4,1,1.6C157.7,64,158.9,63.2,160.1,60.5z"/>
	<path d="M179.9,66.4c-1.4,0-2.6,0-4.2,0c-1.7-4.5-3.6-9.3-5.6-14.4c2.6,0,2.5,0,4.1,0c1.2,3,2.2,5.7,3.6,9.3
		c1.4-3.5,2.5-6.3,3.8-9.3c1,0,2.1,0,3.7,0C183.5,56.9,181.7,61.6,179.9,66.4z"/>
	<path d="M222.2,52.1c-1.8,3.1,0,0-1.8,3.1c-5,0-4.4-0.5-4.5,6.2c0,5.1,0,3.3,0,5.1c-3.9,0,0,0-3.9,0c0-0.8,0-0.6,0-0.8
		c0-4.5,0-8.9,0-13.6C214.7,52.1,219.3,52.1,222.2,52.1z"/>
	
		<linearGradient id="SVGID_00000024003328786141366820000014582607172733674890_" gradientUnits="userSpaceOnUse" x1="10.6915" y1="28.7591" x2="73.0052" y2="28.7591">
		<stop  offset="0" style="stop-color:#490082"/>
		<stop  offset="0.6336" style="stop-color:#1D20A5"/>
		<stop  offset="1" style="stop-color:#082FB5"/>
	</linearGradient>
	<path style="fill:url(#SVGID_00000024003328786141366820000014582607172733674890_);" d="M56.7,14H11.2v-0.8h45.5V14z M3.1,21.9
		v0.8h64v-0.8H3.1z M24.5,7.1h18.6V6.2H24.5V7.1z M15.5,42.6h38.7v-0.8H15.5V42.6z M23.6,51.3h19.5v-0.8H23.6V51.3z M58.8,32.1H6.7
		V33h52.1V32.1z"/>
	
		<linearGradient id="SVGID_00000085241329773078572720000009315408621419769519_" gradientUnits="userSpaceOnUse" x1="8.8291" y1="33.0799" x2="75.9009" y2="33.0799">
		<stop  offset="0" style="stop-color:#490082"/>
		<stop  offset="0.6336" style="stop-color:#1D20A5"/>
		<stop  offset="1" style="stop-color:#082FB5"/>
	</linearGradient>
	<path style="fill:url(#SVGID_00000085241329773078572720000009315408621419769519_);" d="M27.1,6.7c0,1.4-1.1,2.4-2.4,2.4
		c-1.4,0-2.4-1.1-2.4-2.4c0-1.4,1.1-2.4,2.4-2.4C26,4.2,27.1,5.3,27.1,6.7z M43.1,4.2c-1.4,0-2.4,1.1-2.4,2.4c0,1.4,1.1,2.4,2.4,2.4
		c1.4,0,2.4-1.1,2.4-2.4C45.6,5.3,44.5,4.2,43.1,4.2z M56.7,11.1c-1.4,0-2.4,1.1-2.4,2.4s1.1,2.4,2.4,2.4c1.4,0,2.4-1.1,2.4-2.4
		S58.1,11.1,56.7,11.1z M36.8,11.1c-1.4,0-2.4,1.1-2.4,2.4s1.1,2.4,2.4,2.4c1.4,0,2.4-1.1,2.4-2.4S38.2,11.1,36.8,11.1z M67.1,19.9
		c-1.4,0-2.4,1.1-2.4,2.4s1.1,2.4,2.4,2.4s2.4-1.1,2.4-2.4S68.5,19.9,67.1,19.9z M58,19.9c-1.4,0-2.4,1.1-2.4,2.4s1.1,2.4,2.4,2.4
		c1.4,0,2.4-1.1,2.4-2.4S59.3,19.9,58,19.9z M45.7,17.3c-2.8,0-5,2.2-5,5s2.2,5,5,5c2.8,0,5-2.2,5-5S48.5,17.3,45.7,17.3z
		 M58.8,30.1c-1.4,0-2.4,1.1-2.4,2.4c0,1.4,1.1,2.4,2.4,2.4c1.4,0,2.4-1.1,2.4-2.4C61.2,31.2,60.1,30.1,58.8,30.1z M34,28.4
		c-2.3,0-4.2,1.9-4.2,4.2c0,2.3,1.9,4.2,4.2,4.2c2.3,0,4.2-1.9,4.2-4.2C38.1,30.3,36.3,28.4,34,28.4z M6.7,30.1
		c-1.4,0-2.4,1.1-2.4,2.4c0,1.4,1.1,2.4,2.4,2.4c1.4,0,2.4-1.1,2.4-2.4C9.1,31.2,8,30.1,6.7,30.1z M19.7,30.1
		c-1.4,0-2.4,1.1-2.4,2.4c0,1.4,1.1,2.4,2.4,2.4c1.4,0,2.4-1.1,2.4-2.4C22.2,31.2,21.1,30.1,19.7,30.1z M15.5,39.7
		c-1.4,0-2.4,1.1-2.4,2.4c0,1.4,1.1,2.4,2.4,2.4c1.4,0,2.4-1.1,2.4-2.4C18,40.8,16.9,39.7,15.5,39.7z M55.5,39.7
		c-1.4,0-2.4,1.1-2.4,2.4c0,1.4,1.1,2.4,2.4,2.4c1.4,0,2.4-1.1,2.4-2.4C58,40.8,56.9,39.7,55.5,39.7z M23.6,48.4
		c-1.4,0-2.4,1.1-2.4,2.4c0,1.4,1.1,2.4,2.4,2.4c1.4,0,2.4-1.1,2.4-2.4C26.1,49.5,25,48.4,23.6,48.4z M44.5,48.4
		c-1.4,0-2.4,1.1-2.4,2.4c0,1.4,1.1,2.4,2.4,2.4c1.4,0,2.4-1.1,2.4-2.4C47,49.5,45.9,48.4,44.5,48.4z M34.4,57
		c-1.4,0-2.4,1.1-2.4,2.4c0,1.4,1.1,2.4,2.4,2.4c1.4,0,2.4-1.1,2.4-2.4C36.8,58.1,35.7,57,34.4,57z M3.1,19.9
		c-1.4,0-2.4,1.1-2.4,2.4s1.1,2.4,2.4,2.4c1.4,0,2.4-1.1,2.4-2.4S4.4,19.9,3.1,19.9z M23.6,18.8c-1.9,0-3.5,1.6-3.5,3.5
		s1.6,3.5,3.5,3.5c1.9,0,3.5-1.6,3.5-3.5S25.6,18.8,23.6,18.8z M11.2,11.1c-1.4,0-2.4,1.1-2.4,2.4S9.9,16,11.2,16
		c1.4,0,2.4-1.1,2.4-2.4S12.6,11.1,11.2,11.1z"/>
</g>
</svg>
