<?xml version="1.0" encoding="utf-8"?>
<!-- Generator: Adobe Illustrator 26.4.1, SVG Export Plug-In . SVG Version: 6.00 Build 0)  -->
<svg version="1.1" id="Layer_1" xmlns="http://www.w3.org/2000/svg" xmlns:xlink="http://www.w3.org/1999/xlink" x="0px" y="0px"
	 viewBox="0 0 224 71" style="enable-background:new 0 0 224 71;" xml:space="preserve">
<style type="text/css">
	.st0{fill:url(#SVGID_1_);}
	.st1{fill:url(#SVGID_00000054968607864987924070000014473295818846500514_);}
	.st2{fill:url(#SVGID_00000173142211561056211510000009348135580070120116_);}
	.st3{fill:url(#SVGID_00000036227660576979207420000013809662173628178606_);}
	.st4{fill:url(#SVGID_00000045582262688913760470000012022930581652595132_);}
	.st5{fill:url(#SVGID_00000057111815359948487760000011006381096325200828_);}
	.st6{fill:url(#SVGID_00000009553890310538949160000005182126851372193196_);}
	.st7{fill:url(#SVGID_00000156552449055918857370000007577636401200391615_);}
	.st8{fill:url(#SVGID_00000067197691463679016940000011348594273990438528_);}
	.st9{fill:url(#SVGID_00000023254302727951501540000000397579086569199020_);}
</style>
<g>
	<linearGradient id="SVGID_1_" gradientUnits="userSpaceOnUse" x1="189.0808" y1="44.5522" x2="189.0808" y2="20.9229">
		<stop  offset="0" style="stop-color:#082FB5"/>
		<stop  offset="1" style="stop-color:#490082"/>
	</linearGradient>
	<path class="st0" d="M195,23.7c0-0.8,0.1-1.4,0.1-2c1.9-0.4,4.1,0.7,5.2,2.5c0.6,1.1,0.8,2.2,0.8,3.4c0,4.7,0,9.5-0.1,14.2
		c0,0.7,0,1.3,0,2.2c-1.5,0.1-2.9,0.2-4.3-0.1c-0.5-0.1-0.9-0.6-1.3-1.1c-0.2-0.2-0.3-0.6-0.5-0.9c-0.9,0.6-1.8,1.2-2.7,1.7
		c-3.1,1.6-8.4,1.2-11.7-2c-4.5-4.4-4.7-13.1-0.2-17.6c3.6-3.6,10.2-4.4,14.1-0.8C194.5,23.4,194.7,23.5,195,23.7z M189.2,38.8
		c3.4-0.1,5.9-2.8,5.8-6.3c-0.1-3.3-2.8-5.9-6.1-5.8c-3.3,0.1-5.7,2.7-5.6,6.2C183.4,36.3,186,38.9,189.2,38.8z"/>
	
		<linearGradient id="SVGID_00000098933742241913367770000005348337286845830020_" gradientUnits="userSpaceOnUse" x1="114.138" y1="44.529" x2="114.138" y2="20.9131">
		<stop  offset="0" style="stop-color:#082FB5"/>
		<stop  offset="1" style="stop-color:#490082"/>
	</linearGradient>
	<path style="fill:url(#SVGID_00000098933742241913367770000005348337286845830020_);" d="M125.7,34.9c-5.6,0-11.1,0-16.8,0
		c0.5,1.8,1.4,3.1,2.9,3.8c1.8,0.8,3.6,0.7,5.5,0.4c0.5-0.1,1.1-0.2,1.6-0.4c2.7-0.8,4.4,0.1,5.6,2.8c-0.7,0.4-1.4,0.9-2.1,1.3
		c-4,2-8.1,2.2-12.3,1c-4.1-1.1-7.1-5.1-7.5-9.4c-0.2-1.9-0.1-3.9,0.5-5.8c1.5-4.4,5.4-7.4,10-7.7c2.7-0.2,5.2,0.2,7.6,1.6
		c2.8,1.7,4.4,4.2,4.9,7.4C125.8,31.5,125.8,33.1,125.7,34.9z M119.5,30.3c-0.6-3-2.9-4.4-6-4.2c-1.8,0.1-4.6,2.2-4.3,4.2
		C112.6,30.3,116,30.3,119.5,30.3z"/>
	
		<linearGradient id="SVGID_00000119797904767285508980000009592517784605189266_" gradientUnits="userSpaceOnUse" x1="166.4511" y1="44.5018" x2="166.4511" y2="13.4337">
		<stop  offset="0" style="stop-color:#082FB5"/>
		<stop  offset="1" style="stop-color:#490082"/>
	</linearGradient>
	<path style="fill:url(#SVGID_00000119797904767285508980000009592517784605189266_);" d="M160.8,26.8c-1.3,0-2.3,0-3.5,0
		c-0.1-1.8-0.1-3.5,0-5.3c1.2,0,2.3,0,3.5,0c0-2.7,0-5.3,0-7.9c1.3-0.2,2.4-0.2,3.5,0c1.6,0.4,2.8,1.9,2.9,3.6c0,0.9,0,1.9,0,2.8
		c0,0.4,0,0.8,0.1,1.4c0.7,0,1.4,0,2,0c0.9,0,1.9,0,2.8,0c1.4,0.1,2.4,1.3,2.4,2.7c0,1.4-1,2.5-2.4,2.6c-1.1,0.1-2.2,0-3.3,0
		c-0.5,0-0.9,0-1.4,0c-0.1,0.4-0.1,0.8-0.1,1.1c0,2.3,0,4.6,0,7c0,0.5,0.1,1,0.2,1.5c0.4,1.8,1.5,2.6,3.2,2.5c0.4,0,0.8-0.1,1.1-0.1
		c1.5-0.1,2.7,0.6,3.3,2.1c0.3,0.6,0.4,1.3,0.7,2c-1.4,1-2.9,1.5-4.6,1.7c-1.2,0.1-2.4,0.1-3.7,0.1c-3.9-0.3-5.7-2.8-6.3-5.9
		c-0.2-1.2-0.3-2.3-0.3-3.5c0-2.3,0-4.6,0-6.8C160.8,27.8,160.8,27.4,160.8,26.8z"/>
	
		<linearGradient id="SVGID_00000112615985986334099200000006351751031150207369_" gradientUnits="userSpaceOnUse" x1="214.0195" y1="44.6296" x2="214.0195" y2="20.6898">
		<stop  offset="0" style="stop-color:#082FB5"/>
		<stop  offset="1" style="stop-color:#490082"/>
	</linearGradient>
	<path style="fill:url(#SVGID_00000112615985986334099200000006351751031150207369_);" d="M204.7,40.5c0.2-0.3,0.4-0.5,0.5-0.7
		c1.1-1.9,3.4-2.2,5.2-1.3c1,0.5,2.1,0.8,3.3,0.9c0.7,0.1,1.5-0.1,2.2-0.3c1.4-0.6,1.5-2.1,0.2-2.9c-0.7-0.4-1.5-0.7-2.3-1
		c-1.6-0.6-3.2-1.1-4.7-1.9c-4.3-2.3-4.3-8.5-0.3-10.9c0.3-0.2,0.6-0.4,1-0.6c4.5-1.7,8.7-1.3,12.5,1.7c0.2,0.1,0.3,0.3,0.5,0.5
		c-0.4,0.6-0.8,1.2-1.3,1.7c-1.1,1.2-2.5,1.4-4.1,0.9c-0.8-0.2-1.6-0.4-2.5-0.6c-0.4-0.1-0.8,0-1.1,0c-0.9,0.1-1.5,0.7-1.6,1.3
		c-0.1,0.7,0.2,1.4,1.2,1.8c1.3,0.6,2.7,0.9,4,1.5c1.1,0.5,2.3,1,3.3,1.6c3.8,2.5,3.3,7.4,0.6,9.9c-1.4,1.3-3.1,2-5,2.3
		c-3.2,0.5-6.1,0-8.9-1.6C206.4,42.3,205.4,41.5,204.7,40.5z"/>
	
		<linearGradient id="SVGID_00000177467953024374180550000007271738308561480121_" gradientUnits="userSpaceOnUse" x1="89.6463" y1="43.9795" x2="89.6463" y2="21.4605">
		<stop  offset="0" style="stop-color:#082FB5"/>
		<stop  offset="1" style="stop-color:#490082"/>
	</linearGradient>
	<path style="fill:url(#SVGID_00000177467953024374180550000007271738308561480121_);" d="M77.5,21.5c1.8,0,3.6-0.1,5.3,0
		c1.3,0.1,2.1,0.9,2.6,2.1c1.2,3.3,2.4,6.6,3.7,9.8c0.2,0.5,0.4,1,0.7,1.8c0.3-0.7,0.5-1.1,0.6-1.5c1.2-3.3,2.5-6.6,3.7-10
		c0.7-1.8,1.4-2.3,3.3-2.3c1.4,0,2.9,0,4.4,0c-0.1,0.3-0.1,0.6-0.2,0.9c-2.9,6.7-5.9,13.5-8.8,20.2c-0.4,1-1,1.6-2.2,1.4
		c-0.6-0.1-1.3-0.1-1.9,0c-1.1,0.1-1.7-0.3-2.1-1.4c-0.9-2.2-1.9-4.4-2.9-6.6c-1.9-4.4-3.8-8.8-5.8-13.2
		C77.8,22.4,77.7,22,77.5,21.5z"/>
	
		<linearGradient id="SVGID_00000100359558101604203230000007171937106394357635_" gradientUnits="userSpaceOnUse" x1="137.0712" y1="43.9586" x2="137.0712" y2="20.8802">
		<stop  offset="0" style="stop-color:#082FB5"/>
		<stop  offset="1" style="stop-color:#490082"/>
	</linearGradient>
	<path style="fill:url(#SVGID_00000100359558101604203230000007171937106394357635_);" d="M129.7,21.5c1.2,0,2.2,0,3.3,0
		c1.4,0.1,2.2,0.8,2.9,2.6c0.3-0.3,0.6-0.6,0.8-0.9c1.3-1.5,3-2.3,5-2.3c1.9,0,3,1.2,2.8,3.1c-0.1,1.1-0.2,2.3-0.4,3.5
		c-0.6-0.1-1.2-0.2-1.8-0.3c-3.1-0.5-5.5,1.1-6.1,4.2c-0.2,0.9-0.3,1.8-0.3,2.8c0,2.8,0,5.7,0,8.5c0,0.4,0,0.8,0,1.3
		c-1.2,0-2.4,0.1-3.5,0c-1.4-0.2-2.6-1.5-2.7-2.9c0-0.3,0-0.7,0-1c0-5.8,0-11.6-0.1-17.3C129.6,22.3,129.7,22,129.7,21.5z"/>
	
		<linearGradient id="SVGID_00000078031355902430876400000003883532771093172117_" gradientUnits="userSpaceOnUse" x1="150.7767" y1="43.9688" x2="150.7767" y2="21.4539">
		<stop  offset="0" style="stop-color:#082FB5"/>
		<stop  offset="1" style="stop-color:#490082"/>
	</linearGradient>
	<path style="fill:url(#SVGID_00000078031355902430876400000003883532771093172117_);" d="M147.7,44c0-0.5-0.1-0.8-0.1-1.1
		c0-6,0-12-0.1-18c0-0.5,0-1.1,0.1-1.6c0.3-1,1.1-1.7,2.2-1.8c1.3-0.1,2.6,0,4,0c0,0.5,0,0.9,0,1.4c0,5.9,0,11.9-0.1,17.8
		c0,2.3-1,3.3-3.3,3.3C149.7,44,148.7,44,147.7,44z"/>
	
		<linearGradient id="SVGID_00000080897097516035397280000006156722474314396560_" gradientUnits="userSpaceOnUse" x1="150.811" y1="19.1344" x2="150.811" y2="11.4969">
		<stop  offset="0" style="stop-color:#082FB5"/>
		<stop  offset="1" style="stop-color:#490082"/>
	</linearGradient>
	<path style="fill:url(#SVGID_00000080897097516035397280000006156722474314396560_);" d="M150.8,19.1c-2.2,0-3.9-1.6-3.9-3.8
		c0.1-2.6,2-3.8,3.8-3.8c2.2,0,3.9,1.6,3.9,3.8C154.7,17.4,153,19.1,150.8,19.1z"/>
	<path d="M99.8,67.9c-1.7,0-3,0-4.6,0c-1.1-3.1-2.2-6.2-3.6-10.2c-1.4,3.8-2.5,6.9-3.6,10.2c-4.7,0,0,0-4.7,0
		c-1.9-5.7-3.8-11.3-5.8-17.4c4.5,0,2.1,0,4.5,0c1.2,3.5,2.5,7.7,3.7,11.1c0.3,0-0.3,0,0,0c1.1-3.2,2.8-7.7,4-11.1
		c1.3,0,2.6,0,4.1,0c1.2,3.4,2.3,6.8,3.8,11c1.2-3.5,2-6.1,2.9-8.7c0.7-2.1,0.8-2.3,0.8-2.3s0.3,0,4.4,0
		C101.3,63.8,101.8,61.7,99.8,67.9z"/>
	<path d="M200.5,60.7c-3.9,0-7.5,0-11.3,0c0.2,3.2,3.3,4.3,8.2,2.1c0.6,0.8,1.3,1.7,1.9,2.6c-3.8,3.4-8.4,3.8-12.1,1.2
		c-3.4-2.5-4.6-7.8-2.6-11.9c1.8-3.7,5.8-5.5,9.9-4.5C198.7,51.3,200.8,54.8,200.5,60.7z M195.5,57.2c0.1-2.2-1.3-2.9-2.9-3
		c-1.8-0.1-3.3,0.7-3.8,3C191.2,57.2,193.3,57.2,195.5,57.2z"/>
	<path d="M128.5,60.7c-3.9,0-7.5,0-11.2,0c0.5,2.9,3.5,4.3,8.2,2c0.6,0.8,1.3,1.6,2,2.5c-3.3,3.5-7.8,4-11.5,1.6
		c-3.6-2.3-5.1-7.4-3.2-11.7c1.7-4,5.8-6,10.1-4.9C126.8,51.3,128.9,54.8,128.5,60.7z M123.8,57.2c-0.2-2.4-1.7-3.2-3.6-3.1
		c-1.6,0.1-3,0.9-3.1,3.1C119.4,57.2,121.5,57.2,123.8,57.2z"/>
	<path d="M136.7,51.5c3-0.6,5.2-1.4,7.5-1.4c4.8-0.1,7.3,2.4,7.5,7.2c0.1,3.5,0,7,0,10.3c-3.5,0.2-6.6,0.6-9.6,0.6
		c-3.1,0-5.1-1.8-5.5-4.6c-0.4-3.1,1.1-5.2,4.4-5.9c1.8-0.4,3.7-0.4,5.6-0.6c-1.6-3.3-2.2-3.4-7.9-1.8
		C138.3,54.4,137.8,53.5,136.7,51.5z M147.1,60.8c-3.3,0-2.3,0-3.3,0c-0.2,0-0.4,0-0.7,0c-0.9,0-1.7,0.8-1.7,1.7c0,0,0,0,0,0
		c0,1,0.6,1.7,1.2,2C144.2,65,145.7,64,147.1,60.8z"/>
	<path d="M171.1,67.9c-1.7,0-3.1,0-5.1,0c-2.1-5.5-4.4-11.2-6.7-17.4c3.2,0,3,0,4.9,0c1.4,3.7,2.7,6.9,4.4,11.2
		c1.7-4.2,3.1-7.6,4.5-11.2c1.2,0,2.5,0,4.5,0C175.4,56.5,173.3,62.1,171.1,67.9z"/>
	<path d="M222.2,50.6c-2.2,3.7,0,0-2.2,3.7c-6.1,0-5.3-0.6-5.4,7.5c0,6.2,0,4,0,6.2c-4.7,0,0,0-4.7,0c0-0.9,0-0.7,0-0.9
		c0-5.4,0-10.8,0-16.5C213.1,50.6,218.7,50.6,222.2,50.6z"/>
	
		<linearGradient id="SVGID_00000076576739102223103920000012234596976072911787_" gradientUnits="userSpaceOnUse" x1="10.6915" y1="27.1729" x2="73.0052" y2="27.1729">
		<stop  offset="0" style="stop-color:#490082"/>
		<stop  offset="0.6336" style="stop-color:#1D20A5"/>
		<stop  offset="1" style="stop-color:#082FB5"/>
	</linearGradient>
	<path style="fill:url(#SVGID_00000076576739102223103920000012234596976072911787_);" d="M56.7,12.4H11.2v-0.8h45.5V12.4z
		 M3.1,20.3v0.8h64v-0.8H3.1z M24.5,5.5h18.6V4.6H24.5V5.5z M15.5,41h38.7v-0.8H15.5V41z M23.6,49.7h19.5v-0.8H23.6V49.7z
		 M58.8,30.6H6.7v0.8h52.1V30.6z"/>
	
		<linearGradient id="SVGID_00000061457062564567570430000012052090416436725166_" gradientUnits="userSpaceOnUse" x1="8.8291" y1="31.4937" x2="75.9009" y2="31.4937">
		<stop  offset="0" style="stop-color:#490082"/>
		<stop  offset="0.6336" style="stop-color:#1D20A5"/>
		<stop  offset="1" style="stop-color:#082FB5"/>
	</linearGradient>
	<path style="fill:url(#SVGID_00000061457062564567570430000012052090416436725166_);" d="M27.1,5.1c0,1.4-1.1,2.4-2.4,2.4
		c-1.4,0-2.4-1.1-2.4-2.4c0-1.4,1.1-2.4,2.4-2.4C26,2.6,27.1,3.7,27.1,5.1z M43.1,2.6c-1.4,0-2.4,1.1-2.4,2.4c0,1.4,1.1,2.4,2.4,2.4
		c1.4,0,2.4-1.1,2.4-2.4C45.6,3.7,44.5,2.6,43.1,2.6z M56.7,9.5c-1.4,0-2.4,1.1-2.4,2.4s1.1,2.4,2.4,2.4c1.4,0,2.4-1.1,2.4-2.4
		S58.1,9.5,56.7,9.5z M36.8,9.5c-1.4,0-2.4,1.1-2.4,2.4s1.1,2.4,2.4,2.4c1.4,0,2.4-1.1,2.4-2.4S38.2,9.5,36.8,9.5z M67.1,18.3
		c-1.4,0-2.4,1.1-2.4,2.4s1.1,2.4,2.4,2.4s2.4-1.1,2.4-2.4S68.5,18.3,67.1,18.3z M58,18.3c-1.4,0-2.4,1.1-2.4,2.4s1.1,2.4,2.4,2.4
		c1.4,0,2.4-1.1,2.4-2.4S59.3,18.3,58,18.3z M45.7,15.7c-2.8,0-5,2.2-5,5s2.2,5,5,5c2.8,0,5-2.2,5-5S48.5,15.7,45.7,15.7z
		 M58.8,28.5c-1.4,0-2.4,1.1-2.4,2.4c0,1.4,1.1,2.4,2.4,2.4c1.4,0,2.4-1.1,2.4-2.4C61.2,29.6,60.1,28.5,58.8,28.5z M34,26.8
		c-2.3,0-4.2,1.9-4.2,4.2c0,2.3,1.9,4.2,4.2,4.2c2.3,0,4.2-1.9,4.2-4.2C38.1,28.7,36.3,26.8,34,26.8z M6.7,28.5
		c-1.4,0-2.4,1.1-2.4,2.4c0,1.4,1.1,2.4,2.4,2.4c1.4,0,2.4-1.1,2.4-2.4C9.1,29.6,8,28.5,6.7,28.5z M19.7,28.5
		c-1.4,0-2.4,1.1-2.4,2.4c0,1.4,1.1,2.4,2.4,2.4c1.4,0,2.4-1.1,2.4-2.4C22.2,29.6,21.1,28.5,19.7,28.5z M15.5,38.1
		c-1.4,0-2.4,1.1-2.4,2.4c0,1.4,1.1,2.4,2.4,2.4c1.4,0,2.4-1.1,2.4-2.4C18,39.2,16.9,38.1,15.5,38.1z M55.5,38.1
		c-1.4,0-2.4,1.1-2.4,2.4c0,1.4,1.1,2.4,2.4,2.4c1.4,0,2.4-1.1,2.4-2.4C58,39.2,56.9,38.1,55.5,38.1z M23.6,46.8
		c-1.4,0-2.4,1.1-2.4,2.4c0,1.4,1.1,2.4,2.4,2.4c1.4,0,2.4-1.1,2.4-2.4C26.1,47.9,25,46.8,23.6,46.8z M44.5,46.8
		c-1.4,0-2.4,1.1-2.4,2.4c0,1.4,1.1,2.4,2.4,2.4c1.4,0,2.4-1.1,2.4-2.4C47,47.9,45.9,46.8,44.5,46.8z M34.4,55.4
		c-1.4,0-2.4,1.1-2.4,2.4c0,1.4,1.1,2.4,2.4,2.4c1.4,0,2.4-1.1,2.4-2.4C36.8,56.5,35.7,55.4,34.4,55.4z M3.1,18.3
		c-1.4,0-2.4,1.1-2.4,2.4s1.1,2.4,2.4,2.4c1.4,0,2.4-1.1,2.4-2.4S4.4,18.3,3.1,18.3z M23.6,17.2c-1.9,0-3.5,1.6-3.5,3.5
		s1.6,3.5,3.5,3.5c1.9,0,3.5-1.6,3.5-3.5S25.6,17.2,23.6,17.2z M11.2,9.5c-1.4,0-2.4,1.1-2.4,2.4s1.1,2.4,2.4,2.4
		c1.4,0,2.4-1.1,2.4-2.4S12.6,9.5,11.2,9.5z"/>
</g>
</svg>
