<?xml version="1.0" encoding="utf-8"?>
<!-- Generator: Adobe Illustrator 26.4.1, SVG Export Plug-In . SVG Version: 6.00 Build 0)  -->
<svg version="1.1" id="Layer_1" xmlns="http://www.w3.org/2000/svg" xmlns:xlink="http://www.w3.org/1999/xlink" x="0px" y="0px"
	 viewBox="0 0 224 71" style="enable-background:new 0 0 224 71;" xml:space="preserve">
<style type="text/css">
	.st0{fill:url(#SVGID_1_);}
	.st1{fill:url(#SVGID_00000055690838650156185180000016889882319050213763_);}
	.st2{fill:url(#SVGID_00000055670068281621656000000014630578571962346381_);}
	.st3{fill:url(#SVGID_00000000937880296289294200000018284010179754182560_);}
	.st4{fill:url(#SVGID_00000160900304678853746160000009155399603621394318_);}
	.st5{fill:url(#SVGID_00000102545102535591723060000001813529033827492765_);}
	.st6{fill:url(#SVGID_00000129904208690980940350000002258551194850056607_);}
	.st7{fill:url(#SVGID_00000040543155223114853430000009744803005374832001_);}
	.st8{fill:url(#SVGID_00000181766189408491352430000011431563629441775492_);}
	.st9{fill:url(#SVGID_00000062879066842588971520000011731917300234159242_);}
</style>
<g>
	<linearGradient id="SVGID_1_" gradientUnits="userSpaceOnUse" x1="189.0808" y1="47.8579" x2="189.0808" y2="24.2285">
		<stop  offset="0" style="stop-color:#082FB5"/>
		<stop  offset="1" style="stop-color:#490082"/>
	</linearGradient>
	<path class="st0" d="M195,27c0-0.8,0.1-1.4,0.1-2c1.9-0.4,4.1,0.7,5.2,2.5c0.6,1.1,0.8,2.2,0.8,3.4c0,4.7,0,9.5-0.1,14.2
		c0,0.7,0,1.3,0,2.2c-1.5,0.1-2.9,0.2-4.3-0.1c-0.5-0.1-0.9-0.6-1.3-1.1c-0.2-0.2-0.3-0.6-0.5-0.9c-0.9,0.6-1.8,1.2-2.7,1.7
		c-3.1,1.6-8.4,1.2-11.7-2c-4.5-4.4-4.7-13.1-0.2-17.6c3.6-3.6,10.2-4.4,14.1-0.8C194.5,26.7,194.7,26.8,195,27z M189.2,42.1
		c3.4-0.1,5.9-2.8,5.8-6.3c-0.1-3.3-2.8-5.9-6.1-5.8c-3.3,0.1-5.7,2.7-5.6,6.2C183.4,39.7,186,42.2,189.2,42.1z"/>
	
		<linearGradient id="SVGID_00000106129633078837964390000008926743695912968836_" gradientUnits="userSpaceOnUse" x1="114.138" y1="47.8347" x2="114.138" y2="24.2188">
		<stop  offset="0" style="stop-color:#082FB5"/>
		<stop  offset="1" style="stop-color:#490082"/>
	</linearGradient>
	<path style="fill:url(#SVGID_00000106129633078837964390000008926743695912968836_);" d="M125.7,38.2c-5.6,0-11.1,0-16.8,0
		c0.5,1.8,1.4,3.1,2.9,3.8c1.8,0.8,3.6,0.7,5.5,0.4c0.5-0.1,1.1-0.2,1.6-0.4c2.7-0.8,4.4,0.1,5.6,2.8c-0.7,0.4-1.4,0.9-2.1,1.3
		c-4,2-8.1,2.2-12.3,1c-4.1-1.1-7.1-5.1-7.5-9.4c-0.2-1.9-0.1-3.9,0.5-5.8c1.5-4.4,5.4-7.4,10-7.7c2.7-0.2,5.2,0.2,7.6,1.6
		c2.8,1.7,4.4,4.2,4.9,7.4C125.8,34.9,125.8,36.4,125.7,38.2z M119.5,33.6c-0.6-3-2.9-4.4-6-4.2c-1.8,0.1-4.6,2.2-4.3,4.2
		C112.6,33.6,116,33.6,119.5,33.6z"/>
	
		<linearGradient id="SVGID_00000147931622478328623950000005378266592256737168_" gradientUnits="userSpaceOnUse" x1="166.4511" y1="47.8074" x2="166.4511" y2="16.7394">
		<stop  offset="0" style="stop-color:#082FB5"/>
		<stop  offset="1" style="stop-color:#490082"/>
	</linearGradient>
	<path style="fill:url(#SVGID_00000147931622478328623950000005378266592256737168_);" d="M160.8,30.1c-1.3,0-2.3,0-3.5,0
		c-0.1-1.8-0.1-3.5,0-5.3c1.2,0,2.3,0,3.5,0c0-2.7,0-5.3,0-7.9c1.3-0.2,2.4-0.2,3.5,0c1.6,0.4,2.8,1.9,2.9,3.6c0,0.9,0,1.9,0,2.8
		c0,0.4,0,0.8,0.1,1.4c0.7,0,1.4,0,2,0c0.9,0,1.9,0,2.8,0c1.4,0.1,2.4,1.3,2.4,2.7c0,1.4-1,2.5-2.4,2.6c-1.1,0.1-2.2,0-3.3,0
		c-0.5,0-0.9,0-1.4,0c-0.1,0.4-0.1,0.8-0.1,1.1c0,2.3,0,4.6,0,7c0,0.5,0.1,1,0.2,1.5c0.4,1.8,1.5,2.6,3.2,2.5c0.4,0,0.8-0.1,1.1-0.1
		c1.5-0.1,2.7,0.6,3.3,2.1c0.3,0.6,0.4,1.3,0.7,2c-1.4,1-2.9,1.5-4.6,1.7c-1.2,0.1-2.4,0.1-3.7,0.1c-3.9-0.3-5.7-2.8-6.3-5.9
		c-0.2-1.2-0.3-2.3-0.3-3.5c0-2.3,0-4.6,0-6.8C160.8,31.1,160.8,30.7,160.8,30.1z"/>
	
		<linearGradient id="SVGID_00000127030209803353893890000011368347677680488635_" gradientUnits="userSpaceOnUse" x1="214.0195" y1="47.9352" x2="214.0195" y2="23.9954">
		<stop  offset="0" style="stop-color:#082FB5"/>
		<stop  offset="1" style="stop-color:#490082"/>
	</linearGradient>
	<path style="fill:url(#SVGID_00000127030209803353893890000011368347677680488635_);" d="M204.7,43.8c0.2-0.3,0.4-0.5,0.5-0.7
		c1.1-1.9,3.4-2.2,5.2-1.3c1,0.5,2.1,0.8,3.3,0.9c0.7,0.1,1.5-0.1,2.2-0.3c1.4-0.6,1.5-2.1,0.2-2.9c-0.7-0.4-1.5-0.7-2.3-1
		c-1.6-0.6-3.2-1.1-4.7-1.9c-4.3-2.3-4.3-8.5-0.3-10.9c0.3-0.2,0.6-0.4,1-0.6c4.5-1.7,8.7-1.3,12.5,1.7c0.2,0.1,0.3,0.3,0.5,0.5
		c-0.4,0.6-0.8,1.2-1.3,1.7c-1.1,1.2-2.5,1.4-4.1,0.9c-0.8-0.2-1.6-0.4-2.5-0.6c-0.4-0.1-0.8,0-1.1,0c-0.9,0.1-1.5,0.7-1.6,1.3
		c-0.1,0.7,0.2,1.4,1.2,1.8c1.3,0.6,2.7,0.9,4,1.5c1.1,0.5,2.3,1,3.3,1.6c3.8,2.5,3.3,7.4,0.6,9.9c-1.4,1.3-3.1,2-5,2.3
		c-3.2,0.5-6.1,0-8.9-1.6C206.4,45.6,205.4,44.8,204.7,43.8z"/>
	
		<linearGradient id="SVGID_00000065789235751651944150000005557609749034880384_" gradientUnits="userSpaceOnUse" x1="89.6463" y1="47.2852" x2="89.6463" y2="24.7661">
		<stop  offset="0" style="stop-color:#082FB5"/>
		<stop  offset="1" style="stop-color:#490082"/>
	</linearGradient>
	<path style="fill:url(#SVGID_00000065789235751651944150000005557609749034880384_);" d="M77.5,24.8c1.8,0,3.6-0.1,5.3,0
		c1.3,0.1,2.1,0.9,2.6,2.1c1.2,3.3,2.4,6.6,3.7,9.8c0.2,0.5,0.4,1,0.7,1.8c0.3-0.7,0.5-1.1,0.6-1.5c1.2-3.3,2.5-6.6,3.7-10
		c0.7-1.8,1.4-2.3,3.3-2.3c1.4,0,2.9,0,4.4,0c-0.1,0.3-0.1,0.6-0.2,0.9c-2.9,6.7-5.9,13.5-8.8,20.2c-0.4,1-1,1.6-2.2,1.4
		c-0.6-0.1-1.3-0.1-1.9,0c-1.1,0.1-1.7-0.3-2.1-1.4c-0.9-2.2-1.9-4.4-2.9-6.6c-1.9-4.4-3.8-8.8-5.8-13.2
		C77.8,25.7,77.7,25.3,77.5,24.8z"/>
	
		<linearGradient id="SVGID_00000160182601707638938660000008930696160667459003_" gradientUnits="userSpaceOnUse" x1="137.0712" y1="47.2643" x2="137.0712" y2="24.1858">
		<stop  offset="0" style="stop-color:#082FB5"/>
		<stop  offset="1" style="stop-color:#490082"/>
	</linearGradient>
	<path style="fill:url(#SVGID_00000160182601707638938660000008930696160667459003_);" d="M129.7,24.8c1.2,0,2.2,0,3.3,0
		c1.4,0.1,2.2,0.8,2.9,2.6c0.3-0.3,0.6-0.6,0.8-0.9c1.3-1.5,3-2.3,5-2.3c1.9,0,3,1.2,2.8,3.1c-0.1,1.1-0.2,2.3-0.4,3.5
		c-0.6-0.1-1.2-0.2-1.8-0.3c-3.1-0.5-5.5,1.1-6.1,4.2c-0.2,0.9-0.3,1.8-0.3,2.8c0,2.8,0,5.7,0,8.5c0,0.4,0,0.8,0,1.3
		c-1.2,0-2.4,0.1-3.5,0c-1.4-0.2-2.6-1.5-2.7-2.9c0-0.3,0-0.7,0-1c0-5.8,0-11.6-0.1-17.3C129.6,25.6,129.7,25.3,129.7,24.8z"/>
	
		<linearGradient id="SVGID_00000137810376698366525650000002651923991337968568_" gradientUnits="userSpaceOnUse" x1="150.7767" y1="47.2745" x2="150.7767" y2="24.7595">
		<stop  offset="0" style="stop-color:#082FB5"/>
		<stop  offset="1" style="stop-color:#490082"/>
	</linearGradient>
	<path style="fill:url(#SVGID_00000137810376698366525650000002651923991337968568_);" d="M147.7,47.3c0-0.5-0.1-0.8-0.1-1.1
		c0-6,0-12-0.1-18c0-0.5,0-1.1,0.1-1.6c0.3-1,1.1-1.7,2.2-1.8c1.3-0.1,2.6,0,4,0c0,0.5,0,0.9,0,1.4c0,5.9,0,11.9-0.1,17.8
		c0,2.3-1,3.3-3.3,3.3C149.7,47.3,148.7,47.3,147.7,47.3z"/>
	
		<linearGradient id="SVGID_00000048497572116474483070000009371271345625934764_" gradientUnits="userSpaceOnUse" x1="150.811" y1="22.4401" x2="150.811" y2="14.8026">
		<stop  offset="0" style="stop-color:#082FB5"/>
		<stop  offset="1" style="stop-color:#490082"/>
	</linearGradient>
	<path style="fill:url(#SVGID_00000048497572116474483070000009371271345625934764_);" d="M150.8,22.4c-2.2,0-3.9-1.6-3.9-3.8
		c0.1-2.6,2-3.8,3.8-3.8c2.2,0,3.9,1.6,3.9,3.8C154.7,20.7,153,22.4,150.8,22.4z"/>
	<path d="M143.9,64.8c-1.1,0-1.9,0-3,0c-0.7-2-1.4-4-2.3-6.5c-0.9,2.5-1.6,4.4-2.3,6.5c-3,0,0,0-3,0c-1.2-3.7-2.4-7.2-3.7-11.1
		c2.9,0,1.3,0,2.9,0c0.8,2.3,1.6,4.9,2.4,7.1c0.2,0-0.2,0,0,0c0.7-2.1,1.8-4.9,2.5-7.1c0.9,0,1.7,0,2.6,0c0.8,2.2,1.5,4.4,2.4,7.1
		c0.8-2.2,1.3-3.9,1.9-5.6c0.5-1.3,0.5-1.5,0.5-1.5s0.2,0,2.8,0C144.8,62.1,145.2,60.8,143.9,64.8z"/>
	<path d="M208.3,60.1c-2.5,0-4.8,0-7.2,0c0.1,2,2.1,2.8,5.2,1.4c0.4,0.5,0.8,1.1,1.2,1.7c-2.4,2.2-5.4,2.5-7.7,0.8
		c-2.2-1.6-2.9-5-1.7-7.6c1.1-2.4,3.7-3.5,6.4-2.9C207.1,54.1,208.5,56.4,208.3,60.1z M205.1,57.9c0.1-1.4-0.8-1.9-1.9-1.9
		c-1.2-0.1-2.1,0.4-2.4,1.9C202.3,57.9,203.7,57.9,205.1,57.9z"/>
	<path d="M162.2,60.2c-2.5,0-4.8,0-7.2,0c0.3,1.9,2.2,2.7,5.2,1.3c0.4,0.5,0.8,1.1,1.3,1.6c-2.1,2.2-5,2.6-7.4,1
		c-2.3-1.5-3.2-4.7-2.1-7.5c1.1-2.5,3.7-3.8,6.5-3.1C161.2,54.1,162.5,56.4,162.2,60.2z M159.2,57.9c-0.1-1.6-1.1-2-2.3-2
		c-1.1,0.1-1.9,0.6-2,2C156.4,57.9,157.8,57.9,159.2,57.9z"/>
	<path d="M167.5,54.3c1.9-0.4,3.4-0.9,4.8-0.9c3.1-0.1,4.7,1.5,4.8,4.6c0.1,2.2,0,4.4,0,6.6c-2.2,0.2-4.2,0.4-6.2,0.4
		c-2,0-3.3-1.2-3.5-2.9c-0.3-2,0.7-3.3,2.8-3.8c1.2-0.3,2.4-0.3,3.6-0.4c-1-2.1-1.4-2.2-5-1.1C168.5,56.1,168.2,55.5,167.5,54.3z
		 M174.2,60.2c-2.1,0-1.5,0-2.1,0c-0.1,0-0.3,0-0.5,0c-0.6,0-1.1,0.5-1.1,1.1c0,0,0,0,0,0c0,0.6,0.4,1.1,0.8,1.3
		C172.3,62.9,173.3,62.3,174.2,60.2z"/>
	<path d="M189.5,64.7c-1.1,0-2,0-3.3,0c-1.3-3.5-2.8-7.2-4.3-11.1c2,0,1.9,0,3.2,0c0.9,2.3,1.7,4.4,2.8,7.2c1.1-2.7,2-4.9,2.9-7.2
		c0.8,0,1.6,0,2.9,0C192.2,57.4,190.9,61.1,189.5,64.7z"/>
	<path d="M222.2,53.7c-1.4,2.4,0,0-1.4,2.4c-3.9,0-3.4-0.4-3.5,4.8c0,4,0,2.6,0,4c-3,0,0,0-3,0c0-0.6,0-0.4,0-0.6
		c0-3.5,0-6.9,0-10.5C216.4,53.7,219.9,53.7,222.2,53.7z"/>
	
		<linearGradient id="SVGID_00000070812377746910595060000002758340633966893223_" gradientUnits="userSpaceOnUse" x1="10.6915" y1="30.4785" x2="73.0052" y2="30.4785">
		<stop  offset="0" style="stop-color:#490082"/>
		<stop  offset="0.6336" style="stop-color:#1D20A5"/>
		<stop  offset="1" style="stop-color:#082FB5"/>
	</linearGradient>
	<path style="fill:url(#SVGID_00000070812377746910595060000002758340633966893223_);" d="M56.7,15.7H11.2v-0.8h45.5V15.7z
		 M3.1,23.6v0.8h64v-0.8H3.1z M24.5,8.8h18.6V7.9H24.5V8.8z M15.5,44.3h38.7v-0.8H15.5V44.3z M23.6,53h19.5v-0.8H23.6V53z
		 M58.8,33.9H6.7v0.8h52.1V33.9z"/>
	
		<linearGradient id="SVGID_00000114065455064348213890000014549731651629709958_" gradientUnits="userSpaceOnUse" x1="8.8291" y1="34.7993" x2="75.9009" y2="34.7993">
		<stop  offset="0" style="stop-color:#490082"/>
		<stop  offset="0.6336" style="stop-color:#1D20A5"/>
		<stop  offset="1" style="stop-color:#082FB5"/>
	</linearGradient>
	<path style="fill:url(#SVGID_00000114065455064348213890000014549731651629709958_);" d="M27.1,8.4c0,1.4-1.1,2.4-2.4,2.4
		c-1.4,0-2.4-1.1-2.4-2.4C22.2,7,23.3,6,24.7,6C26,6,27.1,7,27.1,8.4z M43.1,6c-1.4,0-2.4,1.1-2.4,2.4c0,1.4,1.1,2.4,2.4,2.4
		c1.4,0,2.4-1.1,2.4-2.4C45.6,7,44.5,6,43.1,6z M56.7,12.9c-1.4,0-2.4,1.1-2.4,2.4s1.1,2.4,2.4,2.4c1.4,0,2.4-1.1,2.4-2.4
		S58.1,12.9,56.7,12.9z M36.8,12.9c-1.4,0-2.4,1.1-2.4,2.4s1.1,2.4,2.4,2.4c1.4,0,2.4-1.1,2.4-2.4S38.2,12.9,36.8,12.9z M67.1,21.6
		c-1.4,0-2.4,1.1-2.4,2.4s1.1,2.4,2.4,2.4s2.4-1.1,2.4-2.4S68.5,21.6,67.1,21.6z M58,21.6c-1.4,0-2.4,1.1-2.4,2.4s1.1,2.4,2.4,2.4
		c1.4,0,2.4-1.1,2.4-2.4S59.3,21.6,58,21.6z M45.7,19c-2.8,0-5,2.2-5,5s2.2,5,5,5c2.8,0,5-2.2,5-5S48.5,19,45.7,19z M58.8,31.8
		c-1.4,0-2.4,1.1-2.4,2.4c0,1.4,1.1,2.4,2.4,2.4c1.4,0,2.4-1.1,2.4-2.4C61.2,32.9,60.1,31.8,58.8,31.8z M34,30.1
		c-2.3,0-4.2,1.9-4.2,4.2c0,2.3,1.9,4.2,4.2,4.2c2.3,0,4.2-1.9,4.2-4.2C38.1,32,36.3,30.1,34,30.1z M6.7,31.8
		c-1.4,0-2.4,1.1-2.4,2.4c0,1.4,1.1,2.4,2.4,2.4c1.4,0,2.4-1.1,2.4-2.4C9.1,32.9,8,31.8,6.7,31.8z M19.7,31.8
		c-1.4,0-2.4,1.1-2.4,2.4c0,1.4,1.1,2.4,2.4,2.4c1.4,0,2.4-1.1,2.4-2.4C22.2,32.9,21.1,31.8,19.7,31.8z M15.5,41.4
		c-1.4,0-2.4,1.1-2.4,2.4c0,1.4,1.1,2.4,2.4,2.4c1.4,0,2.4-1.1,2.4-2.4C18,42.5,16.9,41.4,15.5,41.4z M55.5,41.4
		c-1.4,0-2.4,1.1-2.4,2.4c0,1.4,1.1,2.4,2.4,2.4c1.4,0,2.4-1.1,2.4-2.4C58,42.5,56.9,41.4,55.5,41.4z M23.6,50.1
		c-1.4,0-2.4,1.1-2.4,2.4c0,1.4,1.1,2.4,2.4,2.4c1.4,0,2.4-1.1,2.4-2.4C26.1,51.2,25,50.1,23.6,50.1z M44.5,50.1
		c-1.4,0-2.4,1.1-2.4,2.4c0,1.4,1.1,2.4,2.4,2.4c1.4,0,2.4-1.1,2.4-2.4C47,51.2,45.9,50.1,44.5,50.1z M34.4,58.8
		c-1.4,0-2.4,1.1-2.4,2.4c0,1.4,1.1,2.4,2.4,2.4c1.4,0,2.4-1.1,2.4-2.4C36.8,59.8,35.7,58.8,34.4,58.8z M3.1,21.6
		c-1.4,0-2.4,1.1-2.4,2.4s1.1,2.4,2.4,2.4c1.4,0,2.4-1.1,2.4-2.4S4.4,21.6,3.1,21.6z M23.6,20.6c-1.9,0-3.5,1.6-3.5,3.5
		s1.6,3.5,3.5,3.5c1.9,0,3.5-1.6,3.5-3.5S25.6,20.6,23.6,20.6z M11.2,12.9c-1.4,0-2.4,1.1-2.4,2.4s1.1,2.4,2.4,2.4
		c1.4,0,2.4-1.1,2.4-2.4S12.6,12.9,11.2,12.9z"/>
</g>
</svg>
