<svg width="224" height="71" viewBox="0 0 224 71" fill="none" xmlns="http://www.w3.org/2000/svg">
<g clip-path="url(#clip0_473_354)">
<path d="M189.343 28.0366C189.385 27.2287 189.416 26.615 189.447 26.0169C191.297 25.5972 193.452 26.6832 194.543 28.5245C195.158 29.5632 195.339 30.6911 195.334 31.8872C195.303 36.5667 195.293 41.2409 195.272 45.9203C195.272 46.5813 195.272 47.2476 195.272 48.0554C193.809 48.1341 192.419 48.2128 191.054 48.003C190.579 47.9295 190.15 47.3577 189.757 46.9538C189.54 46.7334 189.452 46.382 189.312 46.1039C188.402 46.6915 187.575 47.3315 186.666 47.7931C183.611 49.3355 178.494 48.9892 175.217 45.7682C170.782 41.4087 170.642 32.7948 174.984 28.3724C178.452 24.8418 184.903 24.0182 188.78 27.6065C188.899 27.7166 189.033 27.8006 189.343 28.0366ZM183.73 42.9825C187.09 42.8986 189.519 40.2546 189.426 36.7817C189.343 33.4977 186.728 30.9849 183.482 31.0688C180.282 31.1528 177.936 33.7863 178.008 37.2224C178.075 40.5589 180.561 43.0612 183.73 42.9825Z" fill="url(#paint0_linear_473_354)"/>
<path d="M121.736 39.111C116.314 39.111 110.949 39.111 105.382 39.111C105.868 40.9313 106.736 42.1589 108.25 42.8514C109.972 43.6383 111.776 43.5701 113.585 43.2658C114.112 43.1766 114.624 43.0193 115.14 42.8724C117.813 42.1222 119.436 42.9248 120.594 45.6685C119.922 46.0829 119.255 46.5656 118.531 46.9276C114.67 48.8686 110.623 49.1256 106.529 47.9505C102.559 46.8121 99.5563 42.9091 99.1997 38.6179C99.0394 36.6978 99.0653 34.783 99.6804 32.9154C101.097 28.5927 104.968 25.5762 109.46 25.3087C112.06 25.1513 114.562 25.4608 116.831 26.8615C119.565 28.5455 121.162 31.0059 121.627 34.2269C121.855 35.806 121.85 37.3745 121.736 39.111ZM115.668 34.5942C115.037 31.6354 112.882 30.2242 109.848 30.4813C108.106 30.6282 105.407 32.6164 105.609 34.5942C108.927 34.5942 112.251 34.5942 115.668 34.5942Z" fill="url(#paint1_linear_473_354)"/>
<path d="M155.985 31.111C154.76 31.111 153.736 31.111 152.558 31.111C152.475 29.3378 152.485 27.6591 152.532 25.865C153.695 25.865 154.749 25.865 155.969 25.865C155.969 23.2 155.969 20.6347 155.969 18.0431C157.225 17.8176 158.331 17.8018 159.406 18.0904C160.993 18.5205 162.125 19.9894 162.213 21.6786C162.26 22.5967 162.218 23.52 162.229 24.438C162.234 24.8472 162.265 25.2564 162.291 25.8335C162.999 25.8335 163.64 25.8335 164.286 25.8335C165.19 25.8335 166.1 25.7863 167.005 25.8597C168.343 25.9646 169.325 27.1293 169.32 28.4985C169.315 29.8782 168.333 30.9903 166.963 31.069C165.893 31.1267 164.823 31.09 163.753 31.09C163.309 31.09 162.864 31.09 162.342 31.09C162.291 31.5149 162.218 31.8349 162.218 32.1549C162.203 34.4527 162.187 36.7557 162.198 39.0535C162.198 39.5518 162.254 40.0555 162.353 40.5433C162.699 42.3008 163.774 43.1244 165.516 42.9932C165.883 42.967 166.25 42.8883 166.622 42.8673C168.126 42.7781 169.243 43.4863 169.811 44.9185C170.054 45.5323 170.251 46.1671 170.494 46.8805C169.139 47.8458 167.635 48.3599 166.038 48.5225C164.86 48.6432 163.65 48.6642 162.466 48.575C158.698 48.3022 156.874 45.8208 156.3 42.7781C156.088 41.6397 156.047 40.4541 156.021 39.2895C155.974 37.0337 155.995 34.7727 155.99 32.5169C155.985 32.113 155.985 31.7038 155.985 31.111Z" fill="url(#paint2_linear_473_354)"/>
<path d="M198.757 44.6509C198.943 44.3939 199.135 44.1736 199.279 43.927C200.396 42.0489 202.618 41.7027 204.355 42.5998C205.322 43.0981 206.443 43.3499 207.529 43.5021C208.222 43.6017 209.028 43.4496 209.684 43.1716C211.039 42.5998 211.152 41.1256 209.912 40.3387C209.224 39.9033 208.418 39.6567 207.663 39.3367C206.144 38.702 204.557 38.2036 203.115 37.4219C198.923 35.1452 198.964 29.0283 202.83 26.6151C203.146 26.421 203.456 26.2007 203.797 26.0695C208.16 24.3488 212.248 24.7528 215.996 27.7273C216.151 27.8532 216.275 28.0211 216.466 28.2309C216.042 28.8185 215.68 29.4322 215.21 29.9463C214.109 31.1582 212.755 31.3208 211.25 30.8592C210.47 30.6178 209.664 30.4395 208.857 30.2873C208.501 30.2191 208.113 30.2611 207.751 30.3136C206.862 30.45 206.252 30.9746 206.144 31.6461C206.03 32.3438 206.371 33.0048 207.27 33.3877C208.557 33.9386 209.912 34.3215 211.194 34.8724C212.284 35.3393 213.39 35.8429 214.372 36.5039C218.053 38.98 217.562 43.8063 214.977 46.2772C213.618 47.5782 211.984 48.2812 210.139 48.5645C207.064 49.0366 204.159 48.596 201.455 47.0169C200.432 46.4293 199.491 45.6949 198.757 44.6509Z" fill="url(#paint3_linear_473_354)"/>
<path d="M74.7202 25.8491C76.5138 25.8491 78.1989 25.7704 79.8736 25.8754C81.1296 25.954 81.9411 26.7672 82.3805 27.9843C83.559 31.2368 84.7685 34.4788 85.9729 37.7209C86.1589 38.2245 86.3657 38.7229 86.681 39.5203C86.9549 38.8645 87.1514 38.4448 87.3064 38.0147C88.5108 34.7306 89.6996 31.4361 90.904 28.1521C91.5501 26.3895 92.3099 25.8491 94.1242 25.8386C95.5249 25.8334 96.9205 25.8386 98.435 25.8386C98.3575 26.1691 98.3368 26.4472 98.2334 26.6832C95.375 33.3457 92.5011 39.9977 89.6583 46.6653C89.2292 47.6726 88.6503 48.2339 87.508 48.0923C86.8981 48.0188 86.2675 48.0346 85.6576 48.0923C84.5979 48.1867 83.988 47.7513 83.5848 46.744C82.7061 44.5407 81.7344 42.3741 80.7988 40.1918C78.9277 35.8271 77.0514 31.4676 75.1802 27.0977C75.0097 26.7252 74.896 26.337 74.7202 25.8491Z" fill="url(#paint4_linear_473_354)"/>
<path d="M125.622 25.8337C126.79 25.8337 127.814 25.797 128.837 25.8442C130.191 25.9072 130.987 26.6468 131.639 28.4357C131.933 28.1052 132.187 27.822 132.44 27.5334C133.737 26.0436 135.355 25.2567 137.319 25.2462C139.128 25.2357 140.255 26.4685 140.09 28.2836C139.986 29.401 139.867 30.5184 139.743 31.7355C139.128 31.6306 138.58 31.5361 138.033 31.447C134.973 30.9381 132.657 32.5276 132.052 35.6123C131.876 36.5094 131.794 37.4327 131.783 38.3455C131.742 41.1416 131.758 43.943 131.747 46.7391C131.747 47.1483 131.747 47.5575 131.747 48.0611C130.527 48.0611 129.421 48.166 128.336 48.0349C126.971 47.867 125.829 46.5345 125.653 45.1286C125.612 44.7981 125.617 44.4623 125.612 44.1266C125.591 38.4084 125.576 32.685 125.56 26.9669C125.565 26.6311 125.596 26.3059 125.622 25.8337Z" fill="url(#paint5_linear_473_354)"/>
<path d="M143.209 48.1029C143.178 47.6203 143.147 47.3318 143.147 47.0432C143.121 41.1152 143.1 35.1872 143.085 29.254C143.085 28.7136 143.064 28.1418 143.224 27.6435C143.56 26.61 144.341 25.9437 145.401 25.8598C146.657 25.7601 147.928 25.8388 149.329 25.8388C149.329 26.3687 149.329 26.7726 149.329 27.1766C149.308 33.0626 149.293 38.9539 149.267 44.8399C149.256 47.0905 148.254 48.0872 146.005 48.0977C145.111 48.1082 144.212 48.1029 143.209 48.1029Z" fill="url(#paint6_linear_473_354)"/>
<path d="M146.259 23.52C144.13 23.5252 142.414 21.8885 142.465 19.7638C142.528 17.167 144.445 15.9605 146.218 15.9605C148.342 15.9552 150.002 17.5867 150.012 19.7219C150.028 21.836 148.374 23.5095 146.259 23.52Z" fill="url(#paint7_linear_473_354)"/>
<path d="M181.465 59.1826C180.979 59.1826 180.617 59.1826 180.162 59.1826C179.852 58.3012 179.542 57.4147 179.144 56.2815C178.756 57.378 178.451 58.2435 178.12 59.1826C176.813 59.1826 178.12 59.1826 176.813 59.1826C176.275 57.5458 175.753 55.951 175.185 54.2146C176.451 54.2146 175.763 54.2146 176.451 54.2146C176.792 55.2218 177.159 56.4127 177.485 57.3727C177.412 57.3779 177.557 57.3675 177.485 57.3727C177.8 56.4546 178.26 55.1851 178.596 54.2146C178.968 54.2146 179.325 54.2146 179.738 54.2146C180.069 55.1904 180.4 56.1609 180.803 57.357C181.139 56.3655 181.377 55.61 181.63 54.8704C181.837 54.2671 181.858 54.2146 181.858 54.2146C181.858 54.2146 181.951 54.2146 183.108 54.2146C181.873 58.0075 182.018 57.4252 181.465 59.1826Z" fill="black"/>
<path d="M209.773 57.1202C208.672 57.1202 207.654 57.1202 206.61 57.1202C206.672 58.033 207.535 58.353 208.905 57.7339C209.075 57.9753 209.262 58.2323 209.437 58.4789C208.372 59.4599 207.075 59.57 206.046 58.8146C205.095 58.1169 204.765 56.5955 205.312 55.4257C205.804 54.3712 206.936 53.8571 208.104 54.1509C209.251 54.4499 209.851 55.4467 209.773 57.1202ZM208.367 56.1234C208.403 55.5044 208.011 55.284 207.551 55.2526C207.034 55.2211 206.62 55.4519 206.481 56.1234C207.142 56.1234 207.737 56.1234 208.367 56.1234Z" fill="black"/>
<path d="M189.517 57.1415C188.427 57.1415 187.414 57.1415 186.354 57.1415C186.494 57.9756 187.341 58.3585 188.649 57.7238C188.825 57.9494 189.016 58.1907 189.202 58.4267C188.282 59.413 187.016 59.5756 185.956 58.8884C184.933 58.2274 184.535 56.7742 185.046 55.5572C185.522 54.424 186.669 53.8575 187.889 54.1565C189.052 54.445 189.642 55.4522 189.517 57.1415ZM188.199 56.129C188.143 55.4313 187.714 55.2267 187.191 55.2529C186.731 55.2791 186.344 55.5047 186.333 56.129C186.969 56.129 187.564 56.129 188.199 56.129Z" fill="black"/>
<path d="M191.842 54.5032C192.694 54.3301 193.315 54.1203 193.94 54.1045C195.289 54.073 195.992 54.7813 196.039 56.1452C196.075 57.1367 196.044 58.1282 196.044 59.0935C195.062 59.1669 194.199 59.2719 193.335 59.2771C192.451 59.2823 191.888 58.7577 191.79 57.9708C191.676 57.0843 192.09 56.481 193.036 56.2711C193.547 56.161 194.08 56.1557 194.622 56.098C194.168 55.1695 193.997 55.1327 192.41 55.5944C192.276 55.3426 192.131 55.0645 191.842 54.5032ZM194.767 57.1525C193.837 57.1472 194.106 57.1577 193.837 57.1472C193.79 57.1472 193.713 57.142 193.635 57.142C193.372 57.1472 193.154 57.3571 193.144 57.6194C193.144 57.6246 193.144 57.6246 193.144 57.6298C193.144 57.9131 193.315 58.1072 193.49 58.1912C193.93 58.3485 194.359 58.0705 194.767 57.1525Z" fill="black"/>
<path d="M201.504 59.1721C201.028 59.1721 200.625 59.1721 200.072 59.1721C199.478 57.6088 198.847 55.9773 198.18 54.2146C199.069 54.2146 199.023 54.2146 199.571 54.2146C199.969 55.2586 200.325 56.1766 200.801 57.4147C201.276 56.2186 201.664 55.2481 202.078 54.2146C202.424 54.2146 202.775 54.2146 203.334 54.2146C202.708 55.9196 202.109 57.5301 201.504 59.1721Z" fill="black"/>
<path d="M215.861 54.262C215.251 55.3269 215.861 54.262 215.251 55.3269C213.545 55.3374 213.767 55.1538 213.731 57.4568C213.736 59.2194 213.736 58.6004 213.736 59.2195C212.423 59.2195 213.736 59.2195 212.423 59.2195C212.423 58.9572 212.423 59.0201 212.423 58.9572C212.413 57.4148 212.418 55.8777 212.418 54.262C213.312 54.262 214.874 54.262 215.861 54.262Z" fill="black"/>
<path d="M54.4439 16.8679H10.0898V16.0285H54.4439V16.8679ZM2.11426 24.674V25.5134H64.5904V24.674H2.11426ZM23.074 10.0061H41.1961V9.16675H23.074V10.0061ZM14.2818 45.1387H52.0611V44.2994H14.2818V45.1387ZM22.1953 53.7842H41.1961V52.9448H22.1953V53.7842ZM56.4753 34.8303H5.62909V35.6697H56.4753V34.8303Z" fill="url(#paint8_linear_473_354)"/>
<path d="M25.58 9.61751C25.58 10.9552 24.5101 12.0359 23.1972 12.0359C21.8791 12.0359 20.8143 10.95 20.8143 9.61751C20.8143 8.27977 21.8843 7.19909 23.1972 7.19909C24.5101 7.19385 25.58 8.27977 25.58 9.61751ZM41.1952 7.19385C39.8771 7.19385 38.8123 8.27977 38.8123 9.61226C38.8123 10.95 39.8823 12.0307 41.1952 12.0307C42.5132 12.0307 43.578 10.9448 43.578 9.61226C43.578 8.27977 42.5081 7.19385 41.1952 7.19385ZM54.443 14.0242C53.1249 14.0242 52.0602 15.1101 52.0602 16.4426C52.0602 17.7803 53.1301 18.861 54.443 18.861C55.7611 18.861 56.8259 17.7751 56.8259 16.4426C56.831 15.1101 55.7611 14.0242 54.443 14.0242ZM35.0494 14.0242C33.7313 14.0242 32.6665 15.1101 32.6665 16.4426C32.6665 17.7803 33.7365 18.861 35.0494 18.861C36.3675 18.861 37.4322 17.7751 37.4322 16.4426C37.4322 15.1101 36.3623 14.0242 35.0494 14.0242ZM64.5895 22.6749C63.2714 22.6749 62.2067 23.7608 62.2067 25.0933C62.2067 26.431 63.2766 27.5117 64.5895 27.5117C65.9076 27.5117 66.9724 26.4258 66.9724 25.0933C66.9724 23.7555 65.9024 22.6749 64.5895 22.6749ZM55.6939 22.6749C54.3758 22.6749 53.311 23.7608 53.311 25.0933C53.311 26.431 54.381 27.5117 55.6939 27.5117C57.0119 27.5117 58.0767 26.4258 58.0767 25.0933C58.0767 23.7555 57.0119 22.6749 55.6939 22.6749ZM43.7331 20.141C41.0401 20.141 38.8537 22.3548 38.8537 25.0933C38.8537 27.8264 41.0349 30.0455 43.7331 30.0455C46.4261 30.0455 48.6125 27.8317 48.6125 25.0933C48.6125 22.3601 46.4261 20.141 43.7331 20.141ZM56.4744 32.8312C55.1563 32.8312 54.0915 33.9171 54.0915 35.2496C54.0915 36.5873 55.1615 37.668 56.4744 37.668C57.7924 37.668 58.8572 36.5821 58.8572 35.2496C58.8572 33.9118 57.7924 32.8312 56.4744 32.8312ZM32.2685 31.121C30.0201 31.121 28.2006 32.9676 28.2006 35.2496C28.2006 37.5316 30.0201 39.3782 32.2685 39.3782C34.517 39.3782 36.3364 37.5316 36.3364 35.2496C36.3364 32.9676 34.517 31.121 32.2685 31.121ZM5.62815 32.8312C4.31009 32.8312 3.2453 33.9171 3.2453 35.2496C3.2453 36.5873 4.31526 37.668 5.62815 37.668C6.94622 37.668 8.01101 36.5821 8.01101 35.2496C8.01101 33.9118 6.94622 32.8312 5.62815 32.8312ZM18.3746 32.8312C17.0565 32.8312 15.9917 33.9171 15.9917 35.2496C15.9917 36.5873 17.0617 37.668 18.3746 37.668C19.6927 37.668 20.7575 36.5821 20.7575 35.2496C20.7575 33.9118 19.6875 32.8312 18.3746 32.8312ZM14.2809 42.3002C12.9628 42.3002 11.898 43.3862 11.898 44.7186C11.898 46.0564 12.968 47.1371 14.2809 47.1371C15.5989 47.1371 16.6637 46.0511 16.6637 44.7186C16.6689 43.3809 15.5989 42.3002 14.2809 42.3002ZM53.3059 42.3002C51.9878 42.3002 50.923 43.3862 50.923 44.7186C50.923 46.0564 51.993 47.1371 53.3059 47.1371C54.6239 47.1371 55.6887 46.0511 55.6887 44.7186C55.6939 43.3809 54.6239 42.3002 53.3059 42.3002ZM22.1944 50.9457C20.8763 50.9457 19.8115 52.0316 19.8115 53.3641C19.8115 54.7018 20.8815 55.7825 22.1944 55.7825C23.5125 55.7825 24.5773 54.6966 24.5773 53.3641C24.5773 52.0263 23.5125 50.9457 22.1944 50.9457ZM42.5753 50.9457C41.2572 50.9457 40.1924 52.0316 40.1924 53.3641C40.1924 54.7018 41.2624 55.7825 42.5753 55.7825C43.8933 55.7825 44.9581 54.6966 44.9581 53.3641C44.9633 52.0263 43.8933 50.9457 42.5753 50.9457ZM32.6614 59.4705C31.3433 59.4705 30.2785 60.5564 30.2785 61.8889C30.2785 63.2266 31.3485 64.3073 32.6614 64.3073C33.9794 64.3073 35.0442 63.2214 35.0442 61.8889C35.0494 60.5511 33.9794 59.4705 32.6614 59.4705ZM2.11332 22.6749C0.795256 22.6749 -0.269531 23.7608 -0.269531 25.0933C-0.269531 26.431 0.800424 27.5117 2.11332 27.5117C3.43138 27.5117 4.49617 26.4258 4.49617 25.0933C4.49617 23.7555 3.43138 22.6749 2.11332 22.6749ZM22.1944 21.6519C20.3233 21.6519 18.8036 23.1942 18.8036 25.0933C18.8036 26.9976 20.3233 28.5347 22.1944 28.5347C24.0707 28.5347 25.5852 26.9923 25.5852 25.0933C25.5852 23.189 24.0655 21.6519 22.1944 21.6519ZM10.0889 14.0242C8.77083 14.0242 7.70604 15.1101 7.70604 16.4426C7.70604 17.7803 8.776 18.861 10.0889 18.861C11.407 18.861 12.4717 17.7751 12.4717 16.4426C12.4769 15.1101 11.407 14.0242 10.0889 14.0242Z" fill="url(#paint9_linear_473_354)"/>
</g>
<defs>
<linearGradient id="paint0_linear_473_354" x1="183.572" y1="48.6813" x2="183.572" y2="25.2878" gradientUnits="userSpaceOnUse">
<stop stop-color="#082FB5"/>
<stop offset="1" stop-color="#490082"/>
</linearGradient>
<linearGradient id="paint1_linear_473_354" x1="110.465" y1="48.6584" x2="110.465" y2="25.2782" gradientUnits="userSpaceOnUse">
<stop stop-color="#082FB5"/>
<stop offset="1" stop-color="#490082"/>
</linearGradient>
<linearGradient id="paint2_linear_473_354" x1="161.494" y1="48.6316" x2="161.494" y2="17.8736" gradientUnits="userSpaceOnUse">
<stop stop-color="#082FB5"/>
<stop offset="1" stop-color="#490082"/>
</linearGradient>
<linearGradient id="paint3_linear_473_354" x1="207.896" y1="48.7581" x2="207.896" y2="25.0572" gradientUnits="userSpaceOnUse">
<stop stop-color="#082FB5"/>
<stop offset="1" stop-color="#490082"/>
</linearGradient>
<linearGradient id="paint4_linear_473_354" x1="86.5748" y1="48.1144" x2="86.5748" y2="25.8201" gradientUnits="userSpaceOnUse">
<stop stop-color="#082FB5"/>
<stop offset="1" stop-color="#490082"/>
</linearGradient>
<linearGradient id="paint5_linear_473_354" x1="132.835" y1="48.0941" x2="132.835" y2="25.246" gradientUnits="userSpaceOnUse">
<stop stop-color="#082FB5"/>
<stop offset="1" stop-color="#490082"/>
</linearGradient>
<linearGradient id="paint6_linear_473_354" x1="146.206" y1="48.104" x2="146.206" y2="25.8138" gradientUnits="userSpaceOnUse">
<stop stop-color="#082FB5"/>
<stop offset="1" stop-color="#490082"/>
</linearGradient>
<linearGradient id="paint7_linear_473_354" x1="146.241" y1="23.5174" x2="146.241" y2="15.9561" gradientUnits="userSpaceOnUse">
<stop stop-color="#082FB5"/>
<stop offset="1" stop-color="#490082"/>
</linearGradient>
<linearGradient id="paint8_linear_473_354" x1="9.55879" y1="31.4755" x2="70.3433" y2="31.4755" gradientUnits="userSpaceOnUse">
<stop stop-color="#490082"/>
<stop offset="0.6336" stop-color="#1D20A5"/>
<stop offset="1" stop-color="#082FB5"/>
</linearGradient>
<linearGradient id="paint9_linear_473_354" x1="7.74114" y1="35.7528" x2="73.1671" y2="35.7528" gradientUnits="userSpaceOnUse">
<stop stop-color="#490082"/>
<stop offset="0.6336" stop-color="#1D20A5"/>
<stop offset="1" stop-color="#082FB5"/>
</linearGradient>
<clipPath id="clip0_473_354">
<rect width="224" height="70.0463" fill="white" transform="translate(0 0.298584)"/>
</clipPath>
</defs>
</svg>
