<svg width="24" height="24" viewBox="0 0 24 24" fill="none" xmlns="http://www.w3.org/2000/svg">
<path d="M14.2414 7.44824H9.76484C8.48984 7.44824 7.44922 8.48418 7.44922 9.76387V14.2404C7.44922 15.5154 8.48516 16.5561 9.76484 16.5561H14.2414C15.5164 16.5561 16.557 15.5201 16.557 14.2404V9.76387C16.5523 8.48418 15.5164 7.44824 14.2414 7.44824ZM12.0008 14.9951C10.3508 14.9951 9.00547 13.6498 9.00547 11.9998C9.00547 10.3498 10.3508 9.00449 12.0008 9.00449C13.6508 9.00449 14.9961 10.3498 14.9961 11.9998C14.9961 13.6498 13.6508 14.9951 12.0008 14.9951ZM15.1461 9.3373C14.8648 9.3373 14.6398 9.1123 14.6398 8.83105C14.6398 8.5498 14.8648 8.32481 15.1461 8.32481C15.4273 8.32481 15.6523 8.5498 15.6523 8.83105C15.6523 9.1123 15.4273 9.3373 15.1461 9.3373Z" fill="white"/>
<path d="M13.8234 12.0218C13.8354 11.0173 13.0309 10.1933 12.0265 10.1812C11.022 10.1691 10.1979 10.9737 10.1859 11.9781C10.1738 12.9826 10.9783 13.8066 11.9828 13.8187C12.9873 13.8308 13.8113 13.0262 13.8234 12.0218Z" fill="white"/>
<path d="M12 1.45312C6.17344 1.45312 1.45312 6.17344 1.45312 12C1.45312 17.8266 6.17344 22.5469 12 22.5469C17.8266 22.5469 22.5469 17.8266 22.5469 12C22.5469 6.17344 17.8266 1.45312 12 1.45312ZM17.8594 14.2406C17.8594 16.2375 16.2375 17.8594 14.2406 17.8594H9.76406C7.76719 17.8594 6.14531 16.2375 6.14531 14.2406V9.76406C6.14531 7.76719 7.76719 6.14531 9.76406 6.14531H14.2406C16.2375 6.14531 17.8594 7.76719 17.8594 9.76406V14.2406Z" fill="white"/>
</svg>
