<svg width="24" height="24" viewBox="0 0 24 24" fill="none" xmlns="http://www.w3.org/2000/svg">
<g clip-path="url(#clip0_346_1706)">
<path d="M11.9999 0C9.62657 0 7.30649 0.703788 5.3331 2.02236C3.35971 3.34094 1.82164 5.21509 0.91339 7.4078C0.00513835 9.60051 -0.232502 12.0133 0.230521 14.3411C0.693544 16.6689 1.83643 18.8071 3.51466 20.4853C5.19289 22.1635 7.33109 23.3064 9.65886 23.7694C11.9866 24.2324 14.3994 23.9948 16.5921 23.0866C18.7849 22.1783 20.659 20.6402 21.9776 18.6668C23.2962 16.6935 23.9999 14.3734 23.9999 12C23.9999 8.8174 22.7357 5.76516 20.4852 3.51472C18.2348 1.26428 15.1825 0 11.9999 0V0ZM8.51047 18.3158H5.89258V9.88263H8.51047V18.3158ZM7.19994 8.73158C6.89866 8.73282 6.60377 8.64472 6.35255 8.4784C6.10132 8.31209 5.90505 8.07502 5.78853 7.79718C5.67201 7.51934 5.64047 7.21318 5.69791 6.91742C5.75535 6.62166 5.89919 6.34957 6.11123 6.13553C6.32328 5.9215 6.59402 5.77514 6.88923 5.71494C7.18445 5.65475 7.49088 5.68343 7.7698 5.79735C8.04872 5.91128 8.2876 6.10534 8.45625 6.355C8.6249 6.60466 8.71575 6.89872 8.71731 7.2C8.71816 7.604 8.55902 7.99191 8.27468 8.27891C7.99034 8.56591 7.60394 8.72866 7.19994 8.73158ZM18.3157 18.3158H15.6994V14.2105C15.6994 13.2316 15.6805 11.9763 14.3384 11.9763C12.9963 11.9763 12.7594 13.0405 12.7594 14.1395V18.3158H10.1526V9.88263H12.6647V11.0321H12.701C13.0499 10.3689 13.9042 9.66947 15.1784 9.66947C17.8278 9.66947 18.3157 11.4158 18.3157 13.6832V18.3158Z" fill="white"/>
</g>
<defs>
<clipPath id="clip0_346_1706">
<rect width="24" height="24" fill="white"/>
</clipPath>
</defs>
</svg>
