<svg width="20" height="20" viewBox="0 0 20 20" fill="none" xmlns="http://www.w3.org/2000/svg">
<g clip-path="url(#clip0_346_1661)">
<path d="M10 0C4.47734 0 0 4.47734 0 10C0 15.5227 4.47734 20 10 20C15.5227 20 20 15.5227 20 10C20 4.47734 15.5227 0 10 0ZM10.7977 14.8742C10.7049 14.9982 10.5844 15.0988 10.446 15.1681C10.3075 15.2374 10.1548 15.2734 10 15.2734C9.84517 15.2734 9.69247 15.2374 9.55401 15.1681C9.41555 15.0988 9.29515 14.9982 9.20234 14.8742C8.0293 13.307 5.97656 10.3375 5.97656 8.75C5.97656 7.68292 6.40046 6.65954 7.155 5.905C7.90954 5.15046 8.93292 4.72656 10 4.72656C11.0671 4.72656 12.0905 5.15046 12.845 5.905C13.5995 6.65954 14.0234 7.68292 14.0234 8.75C14.0234 10.3375 11.9707 13.307 10.7977 14.8742Z" fill="white"/>
<path d="M9.99844 9.64629C10.7548 9.64629 11.368 9.03313 11.368 8.27676C11.368 7.52039 10.7548 6.90723 9.99844 6.90723C9.24207 6.90723 8.62891 7.52039 8.62891 8.27676C8.62891 9.03313 9.24207 9.64629 9.99844 9.64629Z" fill="white"/>
</g>
<defs>
<clipPath id="clip0_346_1661">
<rect width="20" height="20" fill="white"/>
</clipPath>
</defs>
</svg>
