<svg width="20" height="20" viewBox="0 0 20 20" fill="none" xmlns="http://www.w3.org/2000/svg">
<path d="M10 0C7.34784 0 4.8043 1.05357 2.92893 2.92893C1.05357 4.8043 0 7.34784 0 10C0 12.6522 1.05357 15.1957 2.92893 17.0711C4.8043 18.9464 7.34784 20 10 20C12.6522 20 15.1957 18.9464 17.0711 17.0711C18.9464 15.1957 20 12.6522 20 10C20 7.34784 18.9464 4.8043 17.0711 2.92893C15.1957 1.05357 12.6522 0 10 0ZM14.9855 12.9895C14.9427 13.182 14.8563 13.362 14.7329 13.5158C14.4019 13.9689 13.9669 14.3358 13.4645 14.5855C13.2418 14.6979 12.9955 14.7552 12.7461 14.7526C12.433 14.7388 12.1246 14.6716 11.8342 14.5539C11.156 14.3018 10.5057 13.9803 9.89342 13.5947C9.11395 13.1284 8.39076 12.5739 7.73816 11.9421C6.73405 10.9629 5.91401 9.81127 5.31711 8.5421C5.21866 8.31715 5.13385 8.08647 5.06316 7.85132C4.95793 7.51687 4.98817 7.15449 5.14737 6.84211C5.3365 6.45426 5.61089 6.1142 5.95 5.84737C6.14109 5.6687 6.35528 5.51647 6.58684 5.39474C6.72014 5.33133 6.86002 5.28279 7.00395 5.25C7.19868 5.21184 7.36579 5.31184 7.53026 5.41053C7.7761 5.57586 7.98895 5.78558 8.15789 6.02895C8.46301 6.43381 8.72331 6.87057 8.93421 7.33158C8.96146 7.39034 8.98432 7.45103 9.00263 7.51316C9.0238 7.577 9.02689 7.64545 9.01157 7.71094C8.99624 7.77643 8.96309 7.8364 8.91579 7.88421C8.86178 7.94237 8.80079 7.99364 8.73421 8.03684C8.51247 8.18417 8.27505 8.30641 8.02632 8.40132C7.93421 8.43553 7.84605 8.47632 7.76316 8.51842C7.62502 8.58569 7.51828 8.70382 7.46529 8.84805C7.41231 8.99227 7.41721 9.15141 7.47895 9.29211C7.6625 9.67894 7.9019 10.0367 8.18947 10.3539C8.8927 11.1705 9.7379 11.8529 10.6842 12.3684C10.8203 12.4431 10.9783 12.4674 11.1305 12.4368C11.2827 12.4062 11.4192 12.3228 11.5158 12.2013C11.5664 12.1475 11.6106 12.0878 11.6474 12.0237C11.7895 11.7697 11.9263 11.5118 12.0684 11.2579C12.1095 11.185 12.1576 11.1163 12.2118 11.0526C12.284 10.9721 12.3804 10.9172 12.4864 10.8961C12.5925 10.875 12.7025 10.8888 12.8 10.9355C13.1167 11.0948 13.4192 11.281 13.7039 11.4921C14.0723 11.7449 14.4179 12.0293 14.7368 12.3421C14.7878 12.3944 14.8362 12.4493 14.8816 12.5066C14.9358 12.5731 14.9734 12.6517 14.991 12.7357C15.0086 12.8197 15.0058 12.9067 14.9829 12.9895H14.9855Z" fill="white"/>
</svg>
