<svg width="31" height="26" viewBox="0 0 31 26" fill="none" xmlns="http://www.w3.org/2000/svg">
<path d="M30.9 20C30.9 21.6667 30.2667 23.1 29 24.3C27.8 25.4333 26.2667 26 24.4 26C22.3333 26 20.6 25.2667 19.2 23.8C17.8 22.3333 17.1 20.2333 17.1 17.5C17.1 12.1 18.4667 7.93334 21.2 5C24 2 27.0667 0.333333 30.4 0V4.7C28.2667 5.16667 26.5 6.36667 25.1 8.3C23.7 10.2333 22.9667 12.2667 22.9 14.4C23.3667 14.0667 24.0333 13.9 24.9 13.9C26.6333 13.9 28.0667 14.4667 29.2 15.6C30.3333 16.6667 30.9 18.1333 30.9 20ZM13.8 20C13.8 21.6667 13.1667 23.1 11.9 24.3C10.7 25.4333 9.16667 26 7.3 26C5.23333 26 3.5 25.2667 2.1 23.8C0.7 22.3333 0 20.2333 0 17.5C0 12.1 1.36667 7.93334 4.1 5C6.9 2 9.96667 0.333333 13.3 0V4.7C11.1667 5.16667 9.4 6.36667 8 8.3C6.6 10.2333 5.86667 12.2667 5.8 14.4C6.33333 14.0667 7 13.9 7.8 13.9C9.53333 13.9 10.9667 14.4667 12.1 15.6C13.2333 16.6667 13.8 18.1333 13.8 20Z" fill="#6A35FF"/>
</svg>
