<?xml version="1.0" encoding="UTF-8"?>
<svg xmlns="http://www.w3.org/2000/svg" xmlns:xlink="http://www.w3.org/1999/xlink" width="18px" height="18px" viewBox="0 0 18 18" version="1.1">
<defs>
<filter id="alpha" filterUnits="objectBoundingBox" x="0%" y="0%" width="100%" height="100%">
  <feColorMatrix type="matrix" in="SourceGraphic" values="0 0 0 0 1 0 0 0 0 1 0 0 0 0 1 0 0 0 1 0"/>
</filter>
<mask id="mask0">
  <g filter="url(#alpha)">
<rect x="0" y="0" width="18" height="18" style="fill:rgb(0%,0%,0%);fill-opacity:0.25098;stroke:none;"/>
  </g>
</mask>
<clipPath id="clip1">
  <rect x="0" y="0" width="18" height="18"/>
</clipPath>
<g id="surface5" clip-path="url(#clip1)">
<path style=" stroke:none;fill-rule:nonzero;fill:rgb(100%,100%,100%);fill-opacity:1;" d="M 18 9 C 18 13.96875 13.96875 18 9 18 C 4.03125 18 0 13.96875 0 9 C 0 4.03125 4.03125 0 9 0 C 13.96875 0 18 4.03125 18 9 Z M 18 9 "/>
</g>
<clipPath id="clip2">
  <path d="M 4.5 5 L 13.5 5 L 13.5 13 L 4.5 13 Z M 4.5 5 "/>
</clipPath>
</defs>
<g id="surface1">
<use xlink:href="#surface5" mask="url(#mask0)"/>
<g clip-path="url(#clip2)" clip-rule="nonzero">
<path style=" stroke:none;fill-rule:nonzero;fill:rgb(100%,100%,100%);fill-opacity:1;" d="M 13.367188 5.828125 C 13.191406 5.652344 12.90625 5.652344 12.730469 5.828125 L 7.339844 11.21875 L 5.269531 9.144531 C 5.09375 8.96875 4.808594 8.96875 4.632812 9.144531 C 4.457031 9.320312 4.457031 9.605469 4.632812 9.78125 L 7.023438 12.171875 C 7.199219 12.347656 7.484375 12.347656 7.660156 12.171875 L 13.367188 6.464844 C 13.542969 6.289062 13.542969 6.003906 13.367188 5.828125 Z M 13.367188 5.828125 "/>
</g>
</g>
</svg>
