<svg width="24" height="24" viewBox="0 0 24 24" fill="none" xmlns="http://www.w3.org/2000/svg">
<g clip-path="url(#clip0_346_1697)">
<path d="M11.9999 0C9.62657 0 7.30649 0.703788 5.3331 2.02236C3.35971 3.34094 1.82164 5.21509 0.91339 7.4078C0.00513835 9.60051 -0.232502 12.0133 0.230521 14.3411C0.693544 16.6689 1.83643 18.8071 3.51466 20.4853C5.19289 22.1635 7.33109 23.3064 9.65886 23.7694C11.9866 24.2324 14.3994 23.9948 16.5921 23.0866C18.7849 22.1783 20.659 20.6402 21.9776 18.6668C23.2962 16.6935 23.9999 14.3734 23.9999 12C23.9999 8.8174 22.7357 5.76516 20.4852 3.51472C18.2348 1.26428 15.1825 0 11.9999 0V0ZM17.9763 8.36842C17.6926 8.7945 17.3461 9.17513 16.9484 9.49737C16.8982 9.53915 16.858 9.59159 16.8307 9.65086C16.8034 9.71013 16.7897 9.77474 16.7905 9.84V9.87947C16.7858 10.7352 16.6286 11.5832 16.3263 12.3837C16.0147 13.2239 15.5518 13.9998 14.9605 14.6732C14.1659 15.5777 13.1437 16.2532 11.9999 16.6295C11.2484 16.8734 10.4627 16.9955 9.67258 16.9911C8.41911 16.9909 7.18799 16.6591 6.10416 16.0295C6.06532 16.0074 6.03474 15.9732 6.01708 15.9322C5.99941 15.8912 5.99561 15.8455 6.00626 15.8021C6.01719 15.7594 6.04209 15.7216 6.077 15.6947C6.11191 15.6678 6.15482 15.6534 6.19889 15.6537H6.49889C7.45137 15.6554 8.38268 15.3728 9.17363 14.8421C8.70244 14.7652 8.26158 14.5599 7.89946 14.2487C7.53735 13.9376 7.268 13.5327 7.121 13.0784C7.11348 13.0557 7.11212 13.0313 7.11704 13.0079C7.12197 12.9845 7.13301 12.9627 7.14905 12.9449C7.16508 12.9271 7.18554 12.9139 7.20834 12.9066C7.23115 12.8992 7.25549 12.898 7.27889 12.9032C7.42259 12.9302 7.56847 12.9439 7.71468 12.9442H7.76994C7.31442 12.7352 6.92925 12.3985 6.66107 11.9751C6.39289 11.5517 6.2532 11.0596 6.25889 10.5584C6.25905 10.535 6.26529 10.512 6.27698 10.4916C6.28868 10.4713 6.30544 10.4544 6.32563 10.4424C6.34582 10.4305 6.36876 10.424 6.3922 10.4236C6.41565 10.4232 6.43881 10.4288 6.45942 10.44C6.64465 10.5434 6.84341 10.6205 7.04994 10.6689C6.64208 10.2652 6.37972 9.73746 6.304 9.16854C6.22828 8.59963 6.34347 8.02167 6.63152 7.52526C6.64258 7.50629 6.65806 7.49029 6.67666 7.47862C6.69525 7.46694 6.7164 7.45995 6.73829 7.45825C6.76018 7.45654 6.78215 7.46016 6.80233 7.46881C6.82251 7.47746 6.84029 7.49087 6.85416 7.50789C7.42501 8.21325 8.13146 8.79701 8.93177 9.22469C9.73207 9.65237 10.61 9.91528 11.5136 9.9979H11.5263C11.5395 9.99751 11.5526 9.99443 11.5647 9.98883C11.5767 9.98324 11.5875 9.97525 11.5964 9.96535C11.6052 9.95545 11.612 9.94385 11.6162 9.93126C11.6204 9.91867 11.6221 9.90535 11.621 9.89211C11.5858 9.57523 11.6061 9.25465 11.681 8.94474C11.7829 8.5235 11.992 8.13577 12.288 7.81926C12.5841 7.50274 12.957 7.2682 13.3705 7.13842C13.6358 7.05555 13.912 7.01297 14.1899 7.01211C14.8201 7.01138 15.4289 7.24106 15.9015 7.6579C15.9628 7.71268 16.042 7.74302 16.1242 7.74316C16.1508 7.74259 16.1773 7.73888 16.2031 7.73211C16.6469 7.61975 17.0723 7.44428 17.4663 7.21105C17.4898 7.19652 17.5173 7.18963 17.5449 7.19132C17.5725 7.19301 17.599 7.20319 17.6206 7.22048C17.6422 7.23777 17.6579 7.26131 17.6656 7.28789C17.6733 7.31447 17.6726 7.34278 17.6636 7.36895C17.5322 7.78229 17.2981 8.15552 16.9831 8.45368C17.2671 8.38675 17.5441 8.29318 17.8105 8.17421C17.8366 8.1644 17.8651 8.16288 17.8921 8.16985C17.9191 8.17682 17.9434 8.19195 17.9615 8.21317C17.9796 8.2344 17.9907 8.26068 17.9934 8.28846C17.996 8.31624 17.99 8.34416 17.9763 8.36842Z" fill="white"/>
</g>
<defs>
<clipPath id="clip0_346_1697">
<rect width="24" height="24" fill="white"/>
</clipPath>
</defs>
</svg>
