<svg width="24" height="24" viewBox="0 0 24 24" fill="none" xmlns="http://www.w3.org/2000/svg">
<g clip-path="url(#clip0_346_1701)">
<path d="M10.5625 9.70117L14.3062 12.0001L10.5625 14.3006V9.70117Z" fill="white"/>
<path d="M11.9999 0C9.62657 0 7.30649 0.703788 5.3331 2.02236C3.35971 3.34094 1.82164 5.21509 0.91339 7.4078C0.00513835 9.60051 -0.232502 12.0133 0.230521 14.3411C0.693544 16.6689 1.83643 18.8071 3.51466 20.4853C5.19289 22.1635 7.33109 23.3064 9.65886 23.7694C11.9866 24.2324 14.3994 23.9948 16.5921 23.0866C18.7849 22.1783 20.659 20.6402 21.9776 18.6668C23.2962 16.6935 23.9999 14.3734 23.9999 12C23.9999 8.8174 22.7357 5.76516 20.4852 3.51472C18.2348 1.26428 15.1825 0 11.9999 0V0ZM17.7189 14.8879C17.4789 15.6253 16.6847 16.0737 15.9536 16.1763C13.3252 16.4558 10.6746 16.4558 8.04626 16.1763C7.31521 16.0737 6.521 15.6253 6.281 14.8879C5.9068 12.9813 5.9068 11.0202 6.281 9.11368C6.521 8.36842 7.31521 7.9279 8.05258 7.82526C10.681 7.54579 13.3316 7.54579 15.9599 7.82526C16.691 7.9279 17.4852 8.37474 17.7252 9.11368C18.0973 11.0206 18.0952 12.9818 17.7189 14.8879Z" fill="white"/>
</g>
<defs>
<clipPath id="clip0_346_1701">
<rect width="24" height="24" fill="white"/>
</clipPath>
</defs>
</svg>
